<?xml version="1.0" standalone="no"?>
<!DOCTYPE svg PUBLIC "-//W3C//DTD SVG 1.1//EN" "http://www.w3.org/Graphics/SVG/1.1/DTD/svg11.dtd" >
<!--
2013-9-30: Created.
-->
<svg>
<metadata>
Created by iconfont
</metadata>
<defs>

<font id="iconfont" horiz-adv-x="1024" >
  <font-face
    font-family="iconfont"
    font-weight="500"
    font-stretch="normal"
    units-per-em="1024"
    ascent="896"
    descent="-128"
  />
    <missing-glyph />
    
    <glyph glyph-name="iconfontwangyepeizhi" unicode="&#58880;" d="M961.6 741.92 62.336 741.92c-34.24 0-62.016-27.776-62.016-62.016l0-759.808c0-34.368 27.776-62.144 62.016-62.144l899.328 0c34.304 0 62.08 27.776 62.08 62.144L1023.744 679.904C1023.68 714.144 995.968 741.92 961.6 741.92zM558.528 656.672l131.84 0 0-131.84-131.84 0L558.528 656.672zM333.696 656.672l131.776 0 0-131.84L333.696 524.832 333.696 656.672zM101.12 656.672l131.84 0 0-131.84L101.12 524.832 101.12 656.672zM922.88-41.12 101.12-41.12 101.12 455.072l821.76 0L922.88-41.12zM922.88 524.832l-131.776 0 0 131.84 131.776 0L922.88 524.832zM747.264 142.112c0.768-4.032 0.512-9.024-0.512-14.656-1.024-5.824-2.624-11.648-4.992-17.472-2.368-6.016-5.248-11.264-8.64-16s-7.104-8.192-11.2-10.176c-4.032-1.92-7.552-3.072-10.688-3.072-3.008 0-6.464 0.768-10.112 1.984-3.264 1.088-7.616 1.984-12.672 2.88-5.056 0.832-10.176 1.024-15.424 0.512s-10.496-1.6-15.744-3.392c-5.248-1.6-9.664-4.48-13.504-8.576-8-8.448-12.8-18.048-14.144-28.928-1.408-10.88 0.128-21.184 4.48-30.912 3.52-6.72 2.88-13.568-1.472-20.352-1.984-2.688-5.248-5.44-9.6-8.32-4.48-2.88-9.28-5.504-14.464-7.872-5.312-2.368-10.688-4.16-16.576-5.632-5.696-1.344-10.752-1.984-15.232-1.984-3.008 0-5.888 1.28-8.64 3.648-2.624 2.304-4.48 4.864-5.504 7.552L562.112-18.656c-3.776 10.56-10.112 19.52-19.008 27.2-9.024 7.616-19.392 11.392-31.232 11.392-11.52 0-21.888-3.776-31.104-11.392-9.344-7.68-15.872-16.512-19.648-26.688-1.664-4.032-4.224-7.04-7.616-8.96-3.392-1.728-7.104-2.752-11.136-2.752-4.8 0-10.048 0.896-16 2.56-5.888 1.792-11.84 3.84-17.792 6.336-5.888 2.624-11.264 5.504-16 8.896s-8.32 6.848-10.688 10.112c-1.664 2.368-2.624 5.184-2.752 8.512-0.128 3.2 1.088 7.616 3.84 13.376 3.712 7.808 5.184 16.64 4.288 26.688-0.832 9.92-5.184 19.2-12.928 27.648-4.736 5.056-10.496 8.384-17.28 9.92-6.784 1.472-13.184 2.112-19.264 1.664-7.168-0.32-14.4-1.536-21.824-3.968-4.736-1.408-9.408-1.152-14.208 0.896-3.776 1.472-7.168 4.544-10.368 9.408-3.264 4.928-6.144 10.304-8.64 16.192-2.56 6.016-4.48 12.032-5.824 18.304s-1.664 11.456-1.024 15.424c1.024 7.488 4.416 12.224 10.112 14.272 10.176 4.096 19.328 10.752 27.392 20.032 8.128 9.28 12.16 19.776 12.16 31.232 0 11.84-4.032 22.272-12.16 30.976C305.344 247.392 296.192 253.728 286.08 257.888 283.008 258.848 280.512 261.344 278.464 265.184 276.416 269.152 275.456 272.992 275.456 277.152c0 4.416 0.64 9.344 1.984 14.72 1.344 5.376 3.136 10.624 5.312 15.744 2.176 5.056 4.736 9.728 7.616 13.952 2.816 4.224 5.952 7.36 9.344 9.344C302.528 332.64 305.152 333.28 307.648 332.96 310.208 332.64 312.96 331.936 316.032 330.912 326.144 326.88 336.704 325.6 347.712 327.136c11.008 1.472 20.736 6.336 29.184 14.4 4.032 4.096 6.976 9.088 8.896 15.04 1.856 5.888 3.072 11.712 3.584 17.472 0.512 5.76 0.512 11.008 0 15.744-0.512 4.672-0.896 8.064-1.28 10.112-0.64 2.048-1.28 4.416-1.792 7.104C385.792 409.76 385.984 412.128 387.008 414.176 389.12 418.912 392.704 423.008 397.952 426.592 403.2 430.112 408.832 433.12 414.976 435.424 421.056 437.856 427.008 439.648 432.704 440.8c5.76 1.216 10.368 1.792 13.696 1.792 4.48 0 7.872-1.408 10.432-4.288s4.288-5.824 5.312-8.896c3.776-9.152 9.856-17.152 18.304-24.128 8.448-6.848 18.368-10.432 29.952-10.432 11.84 0 22.4 3.328 31.488 9.92 9.088 6.592 15.488 14.976 19.2 25.152 1.344 2.688 3.584 5.504 6.4 8.384s5.888 4.288 8.96 4.288c4.672 0 9.792-0.704 15.36-2.048 5.632-1.344 11.2-3.264 16.512-5.568C613.76 432.608 618.624 429.536 623.232 425.824s8.256-7.808 10.88-12.16c1.728-2.688 2.24-5.696 1.6-8.896C635.008 401.504 634.368 399.264 633.6 397.856c-4.352-9.792-5.76-20.096-4.032-30.912 1.6-10.816 6.528-20.288 14.72-28.416 8.064-8.128 17.984-12.608 29.888-13.44 11.776-0.832 22.784 1.152 33.024 5.824 2.624 1.728 6.016 2.368 9.856 2.048 3.904-0.32 7.168-1.856 9.856-4.544 5.056-4.736 9.6-11.968 13.44-21.568 3.968-9.6 6.592-19.392 7.936-29.184 0.64-5.696-0.256-10.24-2.816-13.44s-5.12-5.312-7.808-6.336c-10.624-3.776-19.52-10.24-27.008-19.584-7.36-9.344-11.136-19.904-11.136-31.68 0-11.52 3.136-21.632 9.344-30.272s14.528-14.72 24.64-18.496c2.304-1.344 4.352-2.624 6.08-4.096C743.488 150.88 745.856 146.848 747.264 142.112L747.264 142.112zM511.36 96.48c15.232 0 29.632 2.88 43.136 8.64s25.28 13.76 35.264 23.872 17.792 21.888 23.616 35.264c5.76 13.312 8.64 27.776 8.64 42.88 0 15.168-2.88 29.504-8.64 42.88C607.552 263.392 599.744 274.976 589.76 285.024s-21.76 17.856-35.264 23.616C540.992 314.336 526.656 317.28 511.36 317.28S481.856 314.336 468.48 308.64c-13.376-5.76-25.088-13.632-35.008-23.616C423.488 274.976 415.616 263.392 409.856 250.016S401.28 222.304 401.28 207.136c0-15.104 2.816-29.568 8.576-42.88 5.76-13.376 13.568-25.152 23.616-35.264 9.92-10.112 21.632-18.112 35.008-23.872S496.128 96.48 511.36 96.48L511.36 96.48zM511.36 96.48"  horiz-adv-x="1024" />

    
    <glyph glyph-name="badaxilietubiao01" unicode="&#58889;" d="M841.181191 385.959907c3.885728-1.421608 7.139631-2.337755 9.193064-2.495712 0.916147-0.063183 1.800703-0.695008 2.432529-1.516382 0.631826-0.884556 0.916147-1.990251 0.821373-2.969581l-4.42278-37.972727-1.168878-2.21139c-7.771457-3.854137-60.497314 8.466465-85.106926 16.774973l-2.116616 0.789782c-60.181401 21.766397-118.056638 64.856912-163.295361 117.677543-4.580737 5.370519-8.971925 11.025359-13.363114 16.680199 12.920836 42.458689 49.787868 46.944652 77.746157 43.532793 31.43333-47.544887 65.425555-85.67557 112.180659-114.707962C777.682705 417.266872 819.446386 393.731364 841.181191 385.959907zM810.600826 715.962488m-96.00592 0a3.039 3.039 0 1 0 192.011841 0 3.039 3.039 0 1 0-192.011841 0ZM189.484538-31.487355c-4.106867 0-7.897822 2.21139-9.982847 5.749614l0 0c-2.053434 3.538224-2.085025 7.897822-0.031591 11.467637l0 0 186.578139 326.306401c3.159129 5.528475 10.172394 7.455544 15.700869 4.264824l0 0c5.496884-3.159129 7.423952-10.172394 4.264824-15.669278l0 0-176.753249-309.089149 331.834876 0 168.476332 299.832902-302.297023 0c-6.349849 0-11.53082 5.117788-11.53082 11.499228l0 0c0 6.349849 5.14938 11.499228 11.53082 11.499228l0 0 321.978394 0c4.075276 0 7.86623-2.179799 9.919664-5.718023l0 0c2.053434-3.475042 2.085025-7.86623 0.094774-11.436046l0 0-181.397168-322.86295c-2.021842-3.601407-5.907571-5.875979-10.014438-5.875979l0 0L189.484538-31.518947 189.484538-31.487355zM0-10.384376c0.031591 111.327694 90.256306 201.552409 201.584001 201.552409l0 0c111.327694-0.031591 201.552409-90.256306 201.584001-201.552409l0 0-0.031591 0c0-111.359286-90.224715-201.584001-201.552409-201.584001l0 0C90.256306-211.999968 0.031591-121.743662 0-10.384376L0-10.384376zM22.998457-10.384376c0.189548-98.627997 79.957547-178.395996 178.585544-178.585544l0 0c98.627997 0.189548 178.395996 79.957547 178.585544 178.585544l0 0-0.031591 0c-0.157956 98.596406-79.925955 178.364405-178.553953 178.553953l0 0C102.987595 167.980029 23.188004 88.180439 22.998457-10.384376L22.998457-10.384376zM677.032866-10.415967c0 111.327694 90.224715 201.552409 201.552409 201.584001l0 0c111.359286-0.031591 201.584001-90.256306 201.584001-201.584001l0 0c0-111.327694-90.224715-201.552409-201.584001-201.584001l0 0C767.289172-211.968376 677.032866-121.743662 677.032866-10.415967L677.032866-10.415967zM700.062914-10.415967c0.189548-98.627997 79.957547-178.395996 178.553953-178.553953l0 0c98.627997 0.157956 178.395996 79.957547 178.585544 178.553953l0 0c-0.189548 98.627997-79.925955 178.395996-178.585544 178.553953l0 0C780.02046 167.980029 700.22087 88.21203 700.062914-10.415967L700.062914-10.415967zM876.658206-23.526351c-0.126365 0.284322-89.403341 188.757938-140.612817 292.377359l0 0c-16.016782 32.507434-28.96921 57.654098-32.475843 63.150982l0 0c-1.421608 1.23206-3.095946 3.538224-3.632998 8.466465l0 0c0.031591 4.896649 2.874807 7.834639 4.201641 8.908743l0 0c1.48479 1.200469 2.369347 1.516382 3.032764 1.800703l0 0c1.263651 0.473869 1.769112 0.537052 2.179799 0.631826l0 0c0.789782 0.126365 1.074104 0.126365 1.358425 0.189548l0 0c0.537052 0.031591 0.884556 0.031591 1.326834 0.063183l0 0c0.789782 0.031591 1.769112 0.031591 3.032764 0.031591l0 0c20.218423 0 115.529336-2.148207 139.44394-2.685259l0 0 45.301905 52.978588c4.106867 4.833467 11.372863 5.40211 16.20633 1.263651l0 0c4.833467-4.106867 5.40211-11.404455 1.263651-16.20633l0 0-48.871721-57.117046c-2.242981-2.622077-5.560066-4.106867-9.003517-4.043685l0 0c-0.126365 0-87.539455 2.021842-127.881529 2.653668l0 0c5.244154-10.014438 12.225828-23.788239 20.313197-40.152525l0 0c16.774973-33.834268 38.54137-78.693895 60.118219-123.49034l0 0c43.122106-89.592889 85.454431-178.964639 85.454431-178.964639l0 0 0.031591-0.031591c2.685259-5.749614 0.25273-12.604923-5.496884-15.321774l0 0c-1.579564-0.758191-3.253903-1.105695-4.896649-1.105695l0 0C882.786916-30.12893 878.648457-27.696401 876.658206-23.526351L876.658206-23.526351zM375.272895 300.695024l-87.191951 2.274573c-6.349849 0.157956-11.372863 5.433701-11.183315 11.78355l0 0c0.157956 6.349849 5.433701 11.372863 11.78355 11.214907l0 0 87.191951-2.274573c6.349849-0.157956 11.372863-5.433701 11.183315-11.815141l0 0c-0.157956-6.255075-5.275745-11.214907-11.499228-11.214907l0 0C375.462443 300.695024 375.367669 300.695024 375.272895 300.695024L375.272895 300.695024zM478.576402 399.386204c-1.863886 1.326834-6.002344 4.517554-6.002344 4.517554-0.410687 0.284322-6.507805 38.035909 0 9.035108l-15.47973 22.556179c0.284322 0.094774 0.568643 0.25273 0.7266 0.505461 0.473869 0.663417 0.284322 1.642747-0.410687 2.085025-4.233232 2.590486-11.499228 3.44345-16.20633 4.549145-11.372863 2.653668-22.682544 5.14938-33.992225 7.992596-12.541741 3.159129-25.367803 4.801876-37.81477 8.371691-8.687604 2.495712 14.216079 37.56204 6.065527 41.131855-2.242981 0.97933-24.388473-13.141975-26.062812-14.437218-4.328006-3.253903-15.069044-18.859998-17.564755-23.598691-6.539396-12.352193-14.089714-30.264453-15.700869-44.101436-3.411859-29.443079 3.822546-59.328436 23.31437-81.000059 25.336212-28.211019 59.42321-45.90214 89.877211-67.668536 21.955944-15.700869 44.701671-30.074905 60.055036-52.946997 14.184488-21.134571 19.270685-46.028505 19.017955-71.175169-0.505461-50.419694-14.879496-98.406858-33.044486-145.004006-1.547973-3.980502-3.348676-7.771457-5.054606-11.657185-0.221139-0.473869-0.157956-1.010921 0.094774-1.48479 0.284322-0.410687 0.758191-0.7266 1.263651-0.7266l59.265254 0 1.23206 0.695008c14.816313 22.398222 25.020299 48.334669 34.750415 73.197011 18.733633 47.734434 33.929042 96.795703 27.800332 148.731778-3.095946 26.094403-12.352193 50.798789-25.652125 73.354968-17.406799 29.474671-49.566729 85.454431-75.408401 108.010609C486.12672 396.890493 486.632181 393.63659 478.576402 399.386204zM696.271959 658.813851 696.271959 658.813851 696.271959 658.813851ZM726.72596 622.45228c-5.496884 26.473498-30.991052 46.4076-66.689206 51.019928-53.389275 6.918492-105.514898-18.070216-148.605413-47.039426-18.765224-12.604923-36.740666-26.378724-54.7477-40.057752-20.028876-15.258591-40.815942-30.738322-59.296845-47.860799-24.514838-22.745726-47.766026-48.303077-65.204416-76.135001l142.792616-83.780092c0.221139 0.379095 0.284322 0.884556 0.568643 1.137286 29.474671 27.642376 82.326893 60.560497 107.505149 81.726659 42.774602 36.014067 95.784781 61.034366 129.303137 107.441966C725.99936 587.891412 730.043045 606.372315 726.72596 622.45228zM696.271959 658.813851 696.271959 658.813851 696.271959 658.813851 696.271959 658.813851z"  horiz-adv-x="1081" />

    
    <glyph glyph-name="yikeapp14" unicode="&#58887;" d="M889.002667 751.413333 134.997333 751.413333c-43.050667 0-78.08-35.029333-78.08-78.08l0-752.384c0-43.050667 35.029333-78.08 78.08-78.08L284.16-157.130667 284.16 748l48.170667 0 0-238.890667 634.752 0L967.082667 673.333333C967.082667 716.384 932.053333 751.413333 889.002667 751.413333zM332.330667 460.810667l0-312.149333 356.693333 0L689.024 460.256l48.170667 0L737.194667-154.826667l-48.170667 0 0 255.274667-356.693333 0 0-257.578667 556.672 0c43.050667 0 78.08 35.029333 78.08 78.08L967.082667 460.810667 332.330667 460.810667zM889.002667 789.813333 134.997333 789.813333c-64.213333 0-116.48-52.266667-116.48-116.48l0-752.384c0-64.213333 52.266667-116.48 116.48-116.48l753.962667 0c64.256 0 116.48 52.309333 116.48 116.48L1005.44 673.333333C1005.482667 737.589333 953.258667 789.813333 889.002667 789.813333zM988.416-79.050667c0-54.826667-44.586667-99.413333-99.413333-99.413333L134.997333-178.464c-54.826667 0-99.413333 44.586667-99.413333 99.413333L35.584 673.333333c0 54.826667 44.586667 99.413333 99.413333 99.413333l753.962667 0c54.826667 0 99.413333-44.586667 99.413333-99.413333L988.373333-79.050667z"  horiz-adv-x="1024" />

    
    <glyph glyph-name="manage_selected-copy" unicode="&#58883;" d="M571.475 151.729c-24.919 0-45.153 20.251-45.153 45.169v74.31c0 24.935 20.236 45.169 45.153 45.169h270.858v184.534c0 24.935-20.251 45.169-45.186 45.169h-645.23c-24.935 0-45.169-20.236-45.169-45.169v-542.989c0-24.919 20.236-45.169 45.169-45.169h645.23c24.935 0 45.186 20.251 45.186 45.169v193.806h-270.858zM797.147-87.245h-645.23c-29.301 0-53.136 23.836-53.136 53.136v542.989c0 29.316 23.836 53.136 53.136 53.136h645.23c29.316 0 53.152-23.82 53.152-53.136v-189.185h-15.933v189.185c0 20.521-16.697 37.203-37.218 37.203h-645.23c-20.521 0-37.203-16.681-37.203-37.203v-542.989c0-20.505 16.681-37.203 37.203-37.203h645.23c20.521 0 37.218 16.697 37.218 37.203v195.989h15.933v-195.989c0-29.301-23.836-53.136-53.152-53.136zM579.536 550.304l-15.040 5.194 15.854 45.998c1.451 4.175 1.179 8.652-0.749 12.602-1.929 3.967-5.291 6.947-9.433 8.349l-330.223 113.936c-8.556 2.996-18.020-1.625-20.969-10.196l-59.923-173.667-15.056 5.164 59.923 173.684c2.82 8.19 8.668 14.801 16.458 18.593 7.776 3.76 16.57 4.318 24.775 1.482l330.207-113.936c8.19-2.836 14.817-8.668 18.593-16.458 3.775-7.759 4.318-16.586 1.482-24.775l-15.901-45.966zM664.491 550.304l-14.068 7.537 34.112 63.763c2.087 3.888 2.516 8.333 1.243 12.572-1.275 4.206-4.111 7.664-7.998 9.734l-308.076 164.681c-8.014 4.27-18.020 1.259-22.305-6.755l-43.083-80.556-14.052 7.521 43.067 80.556c8.397 15.758 28.058 21.716 43.862 13.305l308.044-164.681c7.648-4.095 13.257-10.945 15.742-19.199 2.501-8.301 1.657-17.047-2.454-24.711l-34.032-63.763zM764.326 549.46l-13.018 9.178 61.612 87.328c5.258 7.441 3.474 17.765-3.952 22.975l-285.436 201.391c-3.617 2.549-7.982 3.536-12.332 2.787-4.318-0.749-8.109-3.138-10.628-6.739l-61.389-87.009-13.018 9.178 61.389 87.009c4.987 7.089 12.428 11.807 20.969 13.273 8.507 1.451 17.113-0.478 24.202-5.449l285.452-201.374c14.611-10.308 18.1-30.606 7.776-45.217l-61.628-87.328zM913.982 151.729h-342.507c-29.301 0-53.119 23.836-53.119 53.136v74.31c0 29.301 23.836 53.136 53.119 53.136h342.507c29.301 0 53.136-23.836 53.136-53.136v-74.31c0-29.301-23.836-53.136-53.136-53.136zM571.475 316.38c-20.505 0-37.187-16.697-37.187-37.203v-74.31c0-20.491 16.681-37.203 37.187-37.203h342.507c20.521 0 37.203 16.713 37.203 37.203v74.31c0 20.505-16.681 37.203-37.203 37.203h-342.507z"  horiz-adv-x="1024" />

    
    <glyph glyph-name="guanli" unicode="&#59002;" d="M123.57 865.006zM376.61 623.114c0 86.113-69.816 155.93-155.928 155.93-86.114 0-155.926-69.817-155.926-155.93 0-41.913 16.538-79.958 43.464-107.987-7.3-30.732-11.154-62.771-11.154-95.734 0-148.248 78.067-278.254 195.327-351.159l31.181 128.107c-63.684 53.356-104.18 133.466-104.18 223.051 0 0.043 0 0.095 0 0.146 0 16.839 1.425 33.346 4.162 49.405 84.659-0.321 153.054 68.936 153.054 154.17zM510.262 710.264c53.916 0 104.387-14.671 147.677-40.246-6.805-17.507-10.547-36.546-10.547-56.46 0-86.113 69.813-155.93 155.924-155.93 86.114 0 155.927 69.817 155.927 155.93 0 86.113-69.813 155.925-155.927 155.925-20.184 0-39.461-3.838-57.15-10.801-66.88 46.586-148.199 73.925-235.888 73.925-59.394 0-115.873-12.536-166.904-35.1l71.28-103.336c29.956 10.405 62.12 16.094 95.608 16.094zM800.832 406.36c-4.669-106.011-66.103-197.287-154.636-244.175-25.811 50.488-78.323 85.062-138.928 85.062-86.113 0-155.925-69.817-155.925-155.928 0-86.11 69.812-155.926 155.925-155.926 64.654 0 120.11 39.351 143.738 95.403 158.909 57.559 272.456 209.823 272.456 388.597 0 9.147-0.306 18.225-0.877 27.226l-121.752-40.259zM800.832 406.36z"  horiz-adv-x="1024" />

    
    <glyph glyph-name="guanli1" unicode="&#58919;" d="M183.545 667.286c11.002 13.446 22.005 25.977 33.007 37.592a353.569 353.569 0 0 0 27.049 29.34c9.474 9.169 16.656 15.893 21.546 20.172a148.627 148.627 0 0 0 21.546 14.67c7.641 4.279 17.879 6.418 30.715 6.418H713.5c7.945 0 17.114-1.681 27.506-5.042 10.391-3.362 20.476-10.239 30.256-20.63 4.89-6.113 11.309-13.753 19.254-22.922a6283.887 6283.887 0 0 0 22.922-26.59c8.558-10.391 17.115-21.394 25.673-33.007H183.545v-0.001zM928.049 393.14c0-19.56-6.418-36.064-19.254-49.512-12.836-13.448-31.174-20.171-55.013-20.171H176.21c-23.227 0-41.717 6.723-55.471 20.171-13.753 13.448-20.63 29.952-20.63 49.512V524.252c0 19.561 6.112 36.37 18.338 50.428 12.225 14.059 32.091 21.089 59.597 21.089h674.821c28.117 0 47.677-7.03 58.68-21.089 11.002-14.059 16.503-30.867 16.503-50.428V393.14h0.001z m-345.662 66.014c0 7.947-1.987 13.601-5.96 16.962-3.973 3.362-9.321 5.043-16.045 5.043h-92.604c-6.723 0-12.225-2.139-16.504-6.418s-6.418-9.474-6.418-15.588c0.611-7.947 2.903-13.753 6.877-17.421 3.973-3.667 9.322-5.501 16.045-5.501h92.604c14.058 0.001 21.394 7.642 22.005 22.923z m342.912-397.925c0-19.56-7.488-36.369-22.464-50.428-14.975-14.059-34.076-20.783-57.305-20.171H173.46c-19.56 0-37.134 6.877-52.721 20.63s-23.38 32.855-23.38 57.305V191.427c0 20.171 6.265 37.133 18.796 50.886 12.531 13.753 32.549 20.63 60.055 20.63h672.988c25.673 0 44.774-6.877 57.305-20.63s18.796-30.41 18.796-49.969v-131.115z m-345.663 65.099c0 6.112-1.987 11.308-5.959 15.586-3.973 4.279-9.322 6.418-16.045 6.418h-92.606c-6.723 0-12.224-2.139-16.503-6.418s-6.419-9.474-6.419-15.586c0-6.113 2.14-11.309 6.419-15.588s9.78-6.418 16.503-6.418h92.606c6.723 0 12.072 2.139 16.045 6.418 3.972 4.28 5.959 9.475 5.959 15.588z"  horiz-adv-x="1024" />

    
    <glyph glyph-name="CgpQVFeNruASZGAAACjuwVRk" unicode="&#58888;" d="M661.333333 661.333333c46.933333 0 85.333333 38.4 85.333334 85.333334s-38.4 85.333333-85.333334 85.333333-85.333333-38.4-85.333333-85.333333 38.4-85.333333 85.333333-85.333334zM213.333333 384c-119.466667 0-213.333333-93.866667-213.333333-213.333333s93.866667-213.333333 213.333333-213.333334 213.333333 93.866667 213.333334 213.333334-93.866667 213.333333-213.333334 213.333333z m0-362.666667c-81.066667 0-149.333333 68.266667-149.333333 149.333334s68.266667 149.333333 149.333333 149.333333 149.333333-68.266667 149.333334-149.333333-68.266667-149.333333-149.333334-149.333334z m247.466667 426.666667l102.4 102.4 34.133333-34.133333c55.466667-55.466667 128-89.6 217.6-89.6V512c-64 0-115.2 25.6-153.6 64l-81.066666 81.066667c-21.333333 17.066667-42.666667 25.6-68.266667 25.6s-46.933333-8.533333-59.733333-25.6L332.8 537.6c-17.066667-17.066667-25.6-38.4-25.6-59.733333 0-25.6 8.533333-46.933333 25.6-59.733334L469.333333 298.666667v-213.333334h85.333334v264.533334l-93.866667 98.133333zM810.666667 384c-119.466667 0-213.333333-93.866667-213.333334-213.333333s93.866667-213.333333 213.333334-213.333334 213.333333 93.866667 213.333333 213.333334-93.866667 213.333333-213.333333 213.333333z m0-362.666667c-81.066667 0-149.333333 68.266667-149.333334 149.333334s68.266667 149.333333 149.333334 149.333333 149.333333-68.266667 149.333333-149.333333-68.266667-149.333333-149.333333-149.333334z"  horiz-adv-x="1024" />

    
    <glyph glyph-name="shuxing" unicode="&#58890;" d="M275.2 185.6c-19.2 0-38.4-19.2-38.4-38.4s19.2-38.4 38.4-38.4 38.4 19.2 38.4 38.4c0 25.6-12.8 38.4-38.4 38.4z m0 473.6c-19.2 0-38.4-19.2-38.4-38.4s19.2-38.4 38.4-38.4 38.4 19.2 38.4 38.4-12.8 38.4-38.4 38.4z m0-236.8c-19.2 0-38.4-19.2-38.4-38.4s19.2-38.4 38.4-38.4 38.4 19.2 38.4 38.4-12.8 38.4-38.4 38.4zM864 896h-704C70.4 896 0 825.6 0 736v-710.4C0-57.6 70.4-128 160-128h710.4c89.6 0 160 70.4 160 160v704C1024 825.6 953.6 896 864 896z m83.2-864c0-44.8-38.4-76.8-76.8-76.8H160c-44.8 0-76.8 38.4-76.8 76.8v704c0 44.8 38.4 76.8 76.8 76.8h710.4c44.8 0 76.8-38.4 76.8-76.8v-704z m-198.4 627.2H435.2c-25.6 0-38.4-19.2-38.4-38.4s19.2-38.4 38.4-38.4h313.6c19.2 0 38.4 19.2 38.4 38.4s-19.2 38.4-38.4 38.4z m0-236.8H435.2c-25.6 0-38.4-19.2-38.4-38.4s19.2-38.4 38.4-38.4h313.6c19.2 0 38.4 19.2 38.4 38.4s-19.2 38.4-38.4 38.4z m0-236.8H435.2c-19.2 0-38.4-19.2-38.4-38.4s19.2-38.4 38.4-38.4h313.6c19.2 0 38.4 19.2 38.4 38.4 0 25.6-19.2 38.4-38.4 38.4z"  horiz-adv-x="1030" />

    
    <glyph glyph-name="ccgl-shuxingtiaozheng-10" unicode="&#59148;" d="M907.156 772.406h-790.369c-30.094 0-54.506-24.413-54.506-54.506v-667.8c0-30.206 24.413-54.619 54.506-54.619h790.425c30.15 0 54.563 24.413 54.563 54.619v667.8c-0.056 30.094-24.413 54.506-54.619 54.506zM552.894 697.481h115.875v-115.875h-115.875v115.875zM355.287 697.481h115.819v-115.875h-115.819v115.875zM150.875 697.481h115.875v-115.875h-115.875v115.875zM873.125 84.187h-722.25v436.106h722.25v-436.106zM873.125 581.606h-115.819v115.875h115.819v-115.875zM718.775 245.231c0.675-3.544 0.45-7.931-0.45-12.881-0.9-5.119-2.306-10.238-4.388-15.356-2.081-5.287-4.612-9.9-7.594-14.063s-6.244-7.2-9.844-8.944c-3.544-1.688-6.637-2.7-9.394-2.7-2.644 0-5.681 0.675-8.887 1.744-2.869 0.956-6.694 1.744-11.137 2.531-4.444 0.731-8.944 0.9-13.556 0.45s-9.225-1.406-13.837-2.981c-4.612-1.406-8.494-3.937-11.869-7.537-7.031-7.425-11.25-15.863-12.431-25.425-1.237-9.563 0.112-18.619 3.938-27.169 3.094-5.906 2.531-11.925-1.294-17.887-1.744-2.363-4.613-4.781-8.438-7.313-3.938-2.531-8.156-4.838-12.713-6.919-4.669-2.081-9.394-3.656-14.569-4.95-5.006-1.181-9.45-1.744-13.388-1.744-2.644 0-5.175 1.125-7.594 3.206-2.306 2.025-3.938 4.275-4.838 6.637h-0.45c-3.319 9.281-8.887 17.156-16.706 23.906-7.931 6.694-17.044 10.013-27.45 10.013-10.125 0-19.237-3.319-27.337-10.013-8.213-6.75-13.95-14.512-17.269-23.456-1.462-3.544-3.712-6.188-6.694-7.875-2.981-1.519-6.244-2.419-9.787-2.419-4.219 0-8.831 0.787-14.063 2.25-5.175 1.575-10.406 3.375-15.638 5.569-5.175 2.306-9.9 4.838-14.063 7.819s-7.313 6.019-9.394 8.887c-1.463 2.081-2.306 4.556-2.419 7.481-0.112 2.812 0.956 6.694 3.375 11.756 3.263 6.862 4.556 14.625 3.769 23.456-0.731 8.719-4.556 16.875-11.362 24.3-4.162 4.444-9.225 7.369-15.188 8.719-5.963 1.294-11.587 1.856-16.931 1.463-6.3-0.281-12.656-1.35-19.181-3.487-4.162-1.238-8.269-1.013-12.487 0.787-3.319 1.294-6.3 3.994-9.112 8.269-2.869 4.331-5.4 9.056-7.594 14.231-2.25 5.287-3.938 10.575-5.119 16.088s-1.463 10.069-0.9 13.556c0.9 6.581 3.881 10.744 8.887 12.544 8.944 3.6 16.987 9.45 24.075 17.606 7.144 8.156 10.688 17.381 10.688 27.45 0 10.406-3.544 19.575-10.688 27.225-7.088 7.706-15.131 13.275-24.019 16.931-2.7 0.844-4.894 3.038-6.694 6.413-1.8 3.488-2.644 6.863-2.644 10.519 0 3.881 0.563 8.212 1.744 12.938 1.181 4.725 2.756 9.338 4.669 13.837 1.912 4.444 4.162 8.55 6.694 12.262 2.475 3.713 5.231 6.469 8.213 8.212 2.475 1.519 4.781 2.081 6.975 1.8 2.25-0.281 4.669-0.9 7.369-1.8 8.887-3.544 18.169-4.669 27.844-3.319 9.675 1.294 18.225 5.569 25.65 12.656 3.544 3.6 6.131 7.987 7.819 13.219 1.631 5.175 2.7 10.294 3.15 15.356 0.45 5.063 0.45 9.675 0 13.838-0.45 4.106-0.788 7.088-1.125 8.888-0.563 1.8-1.125 3.881-1.575 6.244-0.45 2.419-0.281 4.5 0.619 6.3 1.856 4.162 5.006 7.762 9.619 10.912 4.612 3.094 9.563 5.737 14.963 7.763 5.344 2.137 10.575 3.712 15.581 4.725 5.063 1.069 9.113 1.575 12.038 1.575 3.938 0 6.919-1.237 9.169-3.769s3.769-5.119 4.669-7.819c3.319-8.044 8.663-15.075 16.087-21.206 7.425-6.019 16.144-9.169 26.325-9.169 10.406 0 19.688 2.925 27.675 8.719 7.988 5.794 13.613 13.163 16.875 22.106 1.181 2.362 3.15 4.838 5.625 7.369s5.175 3.769 7.875 3.769c4.106 0 8.606-0.619 13.5-1.8 4.95-1.181 9.844-2.869 14.513-4.894 4.781-2.081 9.056-4.781 13.106-8.044s7.256-6.863 9.563-10.688c1.519-2.362 1.969-5.006 1.406-7.819-0.619-2.869-1.181-4.838-1.856-6.075-3.825-8.606-5.063-17.663-3.544-27.169 1.406-9.506 5.737-17.831 12.938-24.975 7.088-7.144 15.806-11.081 26.269-11.813 10.35-0.731 20.025 1.012 29.025 5.119 2.306 1.519 5.287 2.081 8.662 1.8 3.431-0.281 6.3-1.631 8.663-3.994 4.444-4.163 8.438-10.519 11.813-18.956 3.487-8.438 5.794-17.044 6.975-25.65 0.563-5.006-0.225-9-2.475-11.813s-4.5-4.669-6.862-5.569c-9.338-3.319-17.156-9-23.738-17.212-6.469-8.213-9.787-17.494-9.787-27.844 0-10.125 2.756-19.013 8.213-26.606s12.769-12.938 21.656-16.256c2.025-1.181 3.825-2.306 5.344-3.6 3.431-2.531 5.512-6.075 6.75-10.237v0zM511.437 205.125c13.387 0 26.044 2.531 37.912 7.594s22.219 12.094 30.994 20.981 15.638 19.238 20.756 30.994c5.063 11.7 7.594 24.412 7.594 37.688 0 13.331-2.531 25.931-7.594 37.688-5.119 11.756-11.981 21.938-20.756 30.769s-19.125 15.694-30.994 20.756c-11.869 5.006-24.469 7.594-37.912 7.594s-25.931-2.588-37.688-7.594c-11.756-5.063-22.050-11.981-30.769-20.756-8.775-8.831-15.694-19.013-20.756-30.769s-7.538-24.356-7.538-37.688c0-13.275 2.475-25.987 7.537-37.688 5.063-11.756 11.925-22.106 20.756-30.994 8.719-8.887 19.012-15.919 30.769-20.981s24.3-7.594 37.688-7.594v0zM511.437 205.125z"  horiz-adv-x="1024" />

    
    <glyph glyph-name="chuhang" unicode="&#59211;" d="M182.896028 765.575532H77.872067c-7.693216 0-13.951757-6.277984-13.951757-14.067391v-36.4297c0-7.789407 6.258541-14.086833 13.951757-14.086833h105.023961c7.711636 0 13.9712 6.297426 13.9712 14.086833v36.4297c0 7.789407-6.258541 14.06739-13.9712 14.067391z m222.392067-99.366102h53.326532c7.711636 0 13.951757 6.316869 13.951757 14.086833v24.007787c0 7.789407-6.240121 14.068414-13.951757 14.068413h-53.326532c-7.711636 0-13.951757-6.277984-13.951757-14.068413v-24.007787c0-7.769964 6.239098-14.086833 13.951757-14.086833z m385.392464 0h53.325509c7.711636 0 13.951757 6.316869 13.951757 14.086833v24.007787c0 7.769964-6.240121 14.068414-13.951757 14.068413h-53.325509c-7.712659 0-13.951757-6.277984-13.951757-14.068413v-24.007787c0-7.769964 6.239098-14.086833 13.951757-14.086833zM371.377774 159.535739h502.411621c25.693172 0 46.543036 21.004383 46.543036 46.930869V651.560802c0 24.337291-18.36937 44.334741-41.854247 46.698578v-29.278837c0-12.963243-10.406001-23.465434-23.252587-23.465434h-74.098625c-12.846586 0-23.252587 10.502192-23.252587 23.465434v29.511128h-49.489134v77.275991c0 25.945929-20.849864 46.969755-46.543036 46.969754H587.800895c-25.713638 0-46.524616-21.023826-46.524616-46.969754v-77.275991h-51.465139v-26.197662c0-12.982686-10.425444-23.484877-23.252587-23.484878h-71.657016c-12.846586 0-23.252587 10.502192-23.252587 23.484878v26.197662h-0.271176c-25.694195 0-46.505173-21.004383-46.505174-46.930869v-445.093171c0-25.926486 20.810978-46.931892 46.505174-46.931892zM801.356712 626.447844h36.933167v-432.14937h-36.933167V626.447844zM580.883345 778.015865h88.321558v-79.524194H580.883345V778.015865zM411.023726 626.447844H447.95587v-432.14937h-36.932144V626.447844zM308.460816 134.693957l0.36839 0.465605-65.204048 613.053534h-32.204469v-24.860201h15.481599l63.49922-613.538581h666.84567v24.879643h-648.786362z m141.510967-98.91994H772.446265v24.279986H449.971783v-24.279986z m-97.93245 19.86135c-29.918403 0-54.177923-24.453948-54.177923-54.643527s24.260543-54.682413 54.177923-54.682414c29.918403 0 54.159504 24.492834 54.159504 54.682414s-24.241101 54.643528-54.159504 54.643527z m1.62808-88.320534c-18.718317 0-33.910321 15.307637-33.91032 34.219359s15.192004 34.219359 33.91032 34.219359c18.73776 0 33.910321-15.307637 33.910321-34.219359s-15.172561-34.219359-33.910321-34.219359z m0 55.205322c-11.471262 0-20.772093-9.398044-20.772092-20.985963 0-11.586896 9.30083-20.965497 20.772092-20.965498 11.490705 0 20.810978 9.378601 20.810979 20.965498 0 11.587919-9.320273 20.985964-20.810979 20.985963z m520.004302 33.115212c-29.91738 0-54.177923-24.453948-54.177924-54.643527s24.260543-54.682413 54.177924-54.682414c29.898961 0 54.140061 24.492834 54.140061 54.682414s-24.241101 54.643528-54.140061 54.643527z m1.62808-88.320534c-18.718317 0-33.910321 15.307637-33.910321 34.219359s15.192004 34.219359 33.910321 34.219359c18.73776 0 33.910321-15.307637 33.910321-34.219359s-15.172561-34.219359-33.910321-34.219359z m0 55.205322c-11.471262 0-20.772093-9.398044-20.772093-20.985963 0-11.586896 9.30083-20.965497 20.772093-20.965498s20.791535 9.378601 20.791535 20.965498c0.001023 11.587919-9.320273 20.985964-20.791535 20.985963z m-564.882418 33.735336c11.781324 9.301853 26.585495 14.843056 42.706661 14.843056 15.017018 0 28.910447-4.804423 40.266076-12.982686l13.912871 35.071774h-109.442598l12.55699-36.932144z m522.718109-3.294023C844.91681 62.242855 859.740424 67.804525 875.84317 67.804525c15.017018 0 28.910447-4.844332 40.266076-12.98371l13.912871 35.054378H820.597939l12.537547-36.913725z"  horiz-adv-x="1024" />

    
    <glyph glyph-name="tupianguanli" unicode="&#58965;" d="M896-128H128a128 128 0 0 0-128 128V768a128 128 0 0 0 128 128h768a128 128 0 0 0 128-128v-768a128 128 0 0 0-128-128zM256 768a128 128 0 1 1 128-128 128 128 0 0 1-128 128z m640-64l-320-448-256 128-192-384h768V704z"  horiz-adv-x="1024" />

    
    <glyph glyph-name="guanli2" unicode="&#59067;" d="M1045.858304 226.079744a127.276032 127.276032 0 0 1 1.345536 18.44736c0 69.725184-56.523776 126.247936-126.247936 126.247936-47.919104 0-89.602048-26.697728-110.987264-66.029568-17.051648 14.642176-39.205888 23.510016-63.444992 23.510016-49.990656 0-91.165696-37.64224-96.78848-86.125568-3.101696 0.268288-6.232064 0.433152-9.403392 0.433152-59.609088 0-107.932672-48.32256-107.932672-107.932672s48.32256-107.932672 107.932672-107.932672h374.81984c56.357888 0 102.045696 45.686784 102.045696 102.045696 0 45.658112-29.98784 84.302848-71.339008 97.33632zM271.203328 594.489344h515.849216c20.759552 0 37.74464 16.985088 37.74464 37.74464v84.119552c0 20.759552-16.985088 37.74464-37.74464 37.74464H271.203328c-20.759552 0-37.74464-16.985088-37.74464-37.74464v-84.119552c0-20.759552 16.985088-37.74464 37.74464-37.74464z m59.067392 117.74464c20.953088 0 37.940224-16.986112 37.940224-37.940224s-16.986112-37.940224-37.940224-37.940224-37.940224 16.986112-37.940224 37.940224 16.987136 37.940224 37.940224 37.940224zM271.203328 381.241344h515.849216c20.759552 0 37.74464 16.985088 37.74464 37.74464v84.119552c0 20.759552-16.985088 37.74464-37.74464 37.74464H271.203328c-20.759552 0-37.74464-16.985088-37.74464-37.74464v-84.119552c0-20.759552 16.985088-37.74464 37.74464-37.74464z m59.067392 117.74464c20.953088 0 37.940224-16.986112 37.940224-37.940224s-16.986112-37.940224-37.940224-37.940224-37.940224 16.986112-37.940224 37.940224 16.987136 37.940224 37.940224 37.940224zM479.414272 134.632448c0 73.1392 54.595584 133.768192 125.174784 143.268864 7.827456 20.92544 20.692992 39.254016 37.049344 53.62688H271.203328c-20.759552 0-37.74464-16.985088-37.74464-37.74464v-241.112064c0-20.759552 16.985088-37.74464 37.74464-37.74464h271.81056c-38.350848 26.020864-63.599616 69.968896-63.599616 119.7056z"  horiz-adv-x="1310" />

    
    <glyph glyph-name="icon_album_set" unicode="&#58964;" d="M106.1 57.557c0-46.8 29.057-79.392 71.1-78.878h543.34v-44.678h-543.34c-65.892 0-115.199 53.1-115.199 123.557v651.34c0 71.486 49.307 125.614 114.685 125.099h269.87c23.85 0 44.1-16.327 49.821-39.407l25.907-107.807h385.584c69.557 0 130.821-58.886 130.821-125.614v-217.157h-44.1v217.157c0 42.557-41.529 81.001-87.235 81.001h-419.783l-33.75 141.813c-0.458 3.285-3.249 5.787-6.625 5.787-0.044 0-0.087 0-0.132-0.001h-269.865c-46.671 0-71.1-40.5-71.1-81.001v-651.276zM589.783 738.854c-0.038 0-0.085 0-0.131 0-12.001 0-21.728 9.728-21.728 21.728 0 0.113 0.001 0.226 0.003 0.339 0 12.068 9.9 22.098 21.857 22.098h261.578c12.196 0 22.082-9.887 22.082-22.082s-9.887-22.082-22.082-22.082h-261.641zM955.567-66c-0.018 0-0.038 0-0.060 0-7.238 0-13.733 3.172-18.175 8.203-6.066 6.967-25.094 25.097-40.651 25.097-15.428 0-34.714-18.192-40.307-24.622-4.451-4.894-10.844-7.954-17.952-7.954-3.407 0-6.65 0.703-9.591 1.972l-0.357 0.133-47.314 28.028-0.45 0.386c-5.804 4.609-9.493 11.664-9.493 19.582 0 3.393 0.678 6.627 1.905 9.577 0.004-0.037 4.311 10.507 4.311 20.149 0 29.314-22.5 53.164-50.142 53.164h-1.993c-7.908 0-14.336 7.392-16.391 18.964-2.591 13.979-4.099 30.089-4.149 46.54 0.099 10.737 3.957 32.595 4.149 33.495 2.058 11.7 8.678 19.222 16.714 18.964h1.673c27.642 0 50.142 23.85 50.142 53.164-0.386 8.159-2.268 15.782-5.376 22.737-0.169 0.361-0.851 3.595-0.851 6.991 0 7.932 3.722 14.996 9.515 19.538l0.503 0.427 49.95 29.057 0.514 0.192c2.758 1.161 5.965 1.836 9.329 1.836 7.094 0 13.487-3.001 17.979-7.801 5.929-6.571 24.57-23.606 39.742-23.606 14.978 0 33.492 16.714 39.407 23.142 4.495 4.732 10.835 7.675 17.862 7.675 3.413 0 6.665-0.695 9.621-1.95l0.353-0.196 48.214-28.35 0.514-0.386c8.614-6.364 11.892-18.836 7.65-29.057-2.722-6.656-4.342-14.374-4.437-22.46 0.065-27.105 22.565-50.955 50.209-50.955h1.671c8.036 0.192 14.658-7.264 16.714-18.964 0.192-0.9 4.050-22.757 4.050-40.050 0-17.228-3.858-39.086-4.050-39.986-2.058-11.7-8.678-19.157-16.714-18.964h-1.671c-27.642 0-50.142-23.85-50.142-53.164 0-9.642 4.308-20.186 4.372-20.314 1.164-2.778 1.841-6.007 1.841-9.393 0-7.936-3.716-15.004-9.502-19.559l-0.503-0.427-49.564-28.928c-2.634-1.218-5.717-1.929-8.965-1.929-0.058 0-0.115 0-0.173 0.001zM945.603-17.465c0.359-0.202 0.788-0.322 1.245-0.322 0.014 0 0.028 0 0.042 0l38.955 22.95c-3.252 7.987-5.167 17.249-5.232 26.951 0.025 33.863 26.061 62.791 58.717 64.526 0.45 2.828 3.022 18.386 3.022 30.086 0 11.7-2.572 27.257-3.022 30.022-32.657 1.801-58.692 30.729-58.692 66.021 0 11.828 4.308 23.142 5.271 25.457l-38.378 22.757h-0.128c-0.642 0-1.286-0.258-1.478-0.386-0.642-0.708-6.172-6.75-14.142-12.729-11.828-8.871-23.014-13.372-33.236-13.372-10.286 0-21.536 4.564-33.428 13.628-14.135 10.845-25.415 24.701-32.998 40.657 18.313-27.427 17.811-27.281 17.276-27.281-0.055 0-0.11-0.002-0.164-0.005l-39.655-23.271c0.9-2.378 5.207-13.628 5.207-25.457 0-35.292-26.036-64.221-58.692-66.021-1.941-10.682-3.071-22.998-3.111-35.571 0.091-6.151 2.662-21.708 3.111-24.471 32.657-1.865 58.692-30.793 58.692-66.086 0-11.828-4.308-23.142-5.271-25.457l37.607-22.436h0.064c0.494 0.014 0.949 0.165 1.334 0.415 0.594 0.741 6.251 7.041 14.288 13.469 12.086 9.386 23.529 14.142 34.071 14.142 10.608 0 22.114-4.886 34.265-14.464 8.1-6.428 13.758-12.858 14.464-13.758zM896.875 173.657c-24.3 0-44.1-20.957-44.1-46.671s19.801-46.671 44.1-46.671c24.3 0 44.036 20.892 44.036 46.671 0 25.714-19.735 46.671-44.036 46.671z"  horiz-adv-x="1171" />

    
    <glyph glyph-name="xitongzidian" unicode="&#58905;" d="M800.384 57.088h-35.68c-1.888 2.272-3.648 4.64-6.208 6.4-17.056 11.68-17.792 20.832-18.016 23.84-0.864 11.072 6.976 24.416 14.24 33.76h43.04a32 32 0 0 1 32 32c0 0.768-0.384 1.408-0.448 2.176 1.408 3.616 2.336 7.52 2.336 11.648v576a32 32 0 0 1-32 32h-521.92c-86.08 0-86.08-55.744-86.08-100.544v-578.56c0-0.8 0.384-1.472 0.448-2.24-0.064-1.504-0.448-2.944-0.448-4.48 0-52.928 43.072-96 96-96h512.736a32 32 0 1 1 0 64z m-544.736 617.28c0 13.824 0 31.008 0.832 33.952 0.16 0.096 4.576 2.592 21.248 2.592h489.92v-512h-512V674.368z m0-585.28c0 17.664 14.368 32 32 32H682.24a94.4 94.4 0 0 1-5.632-38.272c0.544-7.52 2.272-16.352 6.112-25.728H287.648c-17.632 0-32 14.336-32 32zM509.984 416.64c26.464 0 48 21.536 48 48s-21.536 48-48 48-48-21.536-48-48 21.504-48 48-48z m0 64a16 16 0 1 0 0-32 16 16 0 0 0 0 32zM352 443.2a32 32 0 0 1 41.568-26.144 15.808 15.808 0 0 0 18.72-7.2 15.968 15.968 0 0 0-3.392-20.032 31.968 31.968 0 0 1 0.768-49.056c13.088-10.592 26.08-18.496 39.744-24.096a32 32 0 0 1 43.488 23.232 15.936 15.936 0 0 0 31.328-0.288 32 32 0 0 1 42.944-24.032c14.176 5.44 27.776 13.184 40.416 22.976a32 32 0 0 1 1.824 49.056 16.032 16.032 0 0 0-3.136 19.84 15.776 15.776 0 0 0 19.072 7.072 31.872 31.872 0 0 1 27.008 2.72 31.968 31.968 0 0 1 15.2 22.496c1.28 8.032 2.4 15.968 2.4 24.928 0 7.136-0.864 13.312-1.632 18.752l-0.384 2.688a32 32 0 0 1-41.568 26.144 15.808 15.808 0 0 0-18.72 7.2 15.968 15.968 0 0 0 3.392 20.032 31.968 31.968 0 0 1-0.768 49.056 157.76 157.76 0 0 1-39.776 24.064 32 32 0 0 1-43.488-23.232 15.936 15.936 0 0 0-31.328 0.288 32 32 0 0 1-42.944 24c-14.176-5.44-27.776-13.184-40.416-22.976a32 32 0 0 1-1.824-49.056 16.032 16.032 0 0 0 3.136-19.84 15.744 15.744 0 0 0-19.072-7.04A31.872 31.872 0 0 1 367.552 512a31.968 31.968 0 0 1-15.2-22.496c-1.28-8.032-2.4-15.968-2.4-24.928 0-7.136 0.864-13.28 1.632-18.752L352 443.2z m32 41.376a47.84 47.84 0 0 1 57.408 21.248 48 48 0 0 1-9.44 59.616 126.752 126.752 0 0 0 32.288 18.4 47.936 47.936 0 0 1 94.144-0.832c11.648-4.768 22.112-11.52 31.744-19.328a47.936 47.936 0 0 1 46.112-81.888c0.768-5.664 1.728-11.264 1.728-17.152 0-6.848-0.992-13.408-2.016-19.936a47.84 47.84 0 0 1-57.408-21.248A48 48 0 0 1 588 363.84a126.752 126.752 0 0 0-32.288-18.4 47.936 47.936 0 0 1-94.144 0.832 127.008 127.008 0 0 0-31.744 19.328 47.936 47.936 0 0 1-46.112 81.888c-0.768 5.664-1.728 11.264-1.728 17.152 0 6.816 0.96 13.376 2.016 19.936z"  horiz-adv-x="1024" />

    
    <glyph glyph-name="jingsai_icon" unicode="&#58898;" d="M304 345.6h416v64h-416zM304 473.6h416v64h-416zM304 601.6h416v64h-416zM278.4 70.4h64v192h-64zM214.4 134.4h192v64h-192zM499.2 208c-19.2-19.2-28.8-41.6-28.8-67.2s9.6-51.2 28.8-67.2l44.8 44.8c-6.4 6.4-9.6 12.8-9.6 22.4 0 9.6 3.2 16 9.6 22.4l-22.4 22.4 22.4-22.4c12.8 12.8 32 12.8 44.8 0l44.8 44.8c-35.2 35.2-96 35.2-134.4 0M672 208c-19.2-19.2-28.8-41.6-28.8-67.2s9.6-51.2 28.8-67.2l44.8 44.8c-6.4 6.4-9.6 12.8-9.6 22.4 0 9.6 3.2 16 9.6 22.4l-22.4 22.4 22.4-22.4c12.8 12.8 32 12.8 44.8 0l44.8 44.8c-35.2 35.2-96 35.2-134.4 0M640 896h-256C172.8 896 0 723.2 0 512v-256c0-211.2 172.8-384 384-384h256c211.2 0 384 172.8 384 384v256c0 211.2-172.8 384-384 384m0-64c176 0 320-144 320-320v-256c0-176-144-320-320-320h-256C208-64 64 80 64 256v256C64 688 208 832 384 832h256"  horiz-adv-x="1024" />

    
    <glyph glyph-name="jingsai_icon1" unicode="&#58906;" d="M278.4 134.4v-64h64v64h64v64h-64v64h-64v-64h-64v-64h64zM640 896c211.2 0 384-172.8 384-384v-256c0-211.2-172.8-384-384-384h-256C172.8-128 0 44.8 0 256v256C0 723.2 172.8 896 384 896h256zM304 345.6h416v64h-416v-64z m0 128h416v64h-416v-64z m0 128h416v64h-416v-64z m195.2-393.6c-19.2-19.2-28.8-41.6-28.8-67.2s9.6-51.2 28.8-67.2l44.8 44.8c-6.4 6.4-9.6 12.8-9.6 22.4 0 9.6 3.2 16 9.6 22.4 12.8 12.8 32 12.8 44.8 0l44.8 44.8c-35.2 35.2-96 35.2-134.4 0z m172.8 0c-19.2-19.2-28.8-41.6-28.8-67.2s9.6-51.2 28.8-67.2l44.8 44.8c-6.4 6.4-9.6 12.8-9.6 22.4 0 9.6 3.2 16 9.6 22.4 12.8 12.8 32 12.8 44.8 0l44.8 44.8c-35.2 35.2-96 35.2-134.4 0z"  horiz-adv-x="1024" />

    
    <glyph glyph-name="guanli3" unicode="&#58935;" d="M828.235294-124.988235c30.117647 6.023529 45.176471 27.105882 45.176471 54.211764V143.058824H560.188235c-24.094118 0-48.188235 15.058824-48.188235 36.141176v69.270588c0 15.058824 6.023529 30.117647 18.070588 39.152941 3.011765 0 3.011765 3.011765 6.02353 3.011765s3.011765 0 6.023529 3.011765h3.011765c3.011765 0 3.011765 0 6.023529 3.011765H963.764706c24.094118 0 30.117647-15.058824 30.117647-36.141177v-78.305882c0-21.082353-6.023529-36.141176-30.117647-36.141177h-90.352941v-30.117647h90.352941c33.129412 0 60.235294 36.141176 60.235294 66.258824v78.305882c0 30.117647-27.105882 66.258824-60.235294 66.258824h-90.352941v174.682353c0 30.117647-15.058824 66.258824-48.188236 66.258823h-18.070588l51.2 66.258824c12.047059 15.058824 9.035294 36.141176-9.035294 48.188235L512 889.976471c-6.023529 3.011765-18.070588 6.023529-27.105882 6.023529-9.035294-3.011765-18.070588-6.023529-24.094118-15.058824L391.529412 796.611765l-63.247059 30.117647c-18.070588 9.035294-42.164706 3.011765-51.2-15.058824L231.905882 733.364706l-57.223529 18.070588c-9.035294 3.011765-21.082353 3.011765-30.117647-3.011765-9.035294-3.011765-15.058824-9.035294-18.070588-18.070588L60.235294 564.705882c-33.129412-3.011765-60.235294-36.141176-60.235294-66.258823v-569.22353c0-27.105882 24.094118-51.2 51.2-54.211764 6.023529-3.011765 9.035294-3.011765 12.047059-3.011765h761.97647c3.011765 0 0 0 3.011765 3.011765zM475.858824 871.905882c3.011765 3.011765 6.023529 6.023529 12.047058 6.02353s9.035294 0 15.058824-3.011765l337.317647-210.823529c9.035294-6.023529 12.047059-15.058824 6.023529-24.094118L783.058824 564.705882h-99.388236l24.094118 42.164706c6.023529 9.035294 6.023529 18.070588 3.011765 27.105883-3.011765 9.035294-9.035294 15.058824-18.070589 21.082353l-283.105882 135.529411L475.858824 871.905882z m-180.705883-69.270588c6.023529 9.035294 18.070588 12.047059 27.105883 6.02353l364.423529-171.670589c3.011765 0 6.023529-3.011765 6.023529-9.035294v-12.047059L662.588235 564.705882h-84.329411l9.035294 24.094118c3.011765 9.035294 3.011765 18.070588-3.011765 27.105882-3.011765 9.035294-12.047059 15.058824-21.082353 18.070589L249.976471 727.341176l45.17647 75.294118z m-150.588235-78.305882c3.011765 9.035294 15.058824 15.058824 24.094118 12.047059l388.517647-120.470589c6.023529 0 9.035294-6.023529 12.047058-9.035294 3.011765-3.011765 3.011765-9.035294 0-12.047059l-12.047058-30.117647H81.317647l63.247059 159.62353z"  horiz-adv-x="1024" />

    
    <glyph glyph-name="navicon-xtgl" unicode="&#58945;" d="M515.072 295.93600000000004c-74.752 0-135.68 60.928-135.68 135.68S440.32 567.296 515.072 567.296s135.68-60.928 135.68-135.68-60.928-135.68-135.68-135.68z m0 220.16c-46.592 0-84.48-37.888-84.48-84.48s37.888-84.48 84.48-84.48 84.48 37.888 84.48 84.48-37.888 84.48-84.48 84.48zM513.536 533.504c-14.336 0-25.6 11.264-25.6 25.6V599.04c0 14.336 11.264 25.6 25.6 25.6s25.6-11.264 25.6-25.6v-39.936c0-14.336-11.264-25.6-25.6-25.6zM423.424 495.616c-6.656 0-13.312 2.56-18.432 7.68l-27.648 28.16c-9.728 10.24-9.728 26.112 0.512 36.352 10.24 9.728 26.112 9.728 36.352-0.512l27.648-28.16c9.728-10.24 9.728-26.112-0.512-36.352-5.12-4.608-11.264-7.168-17.92-7.168zM387.072 404.992h-39.424c-14.336 0-25.6 11.264-25.6 25.6s11.264 25.6 25.6 25.6h39.424c14.336 0 25.6-11.264 25.6-25.6s-11.264-25.6-25.6-25.6zM396.8 286.72c-6.656 0-13.312 2.56-17.92 7.68-10.24 10.24-10.24 26.112 0 36.352l28.672 28.672c10.24 10.24 26.112 10.24 36.352 0s10.24-26.112 0-36.352l-28.672-28.672c-5.12-5.12-11.776-7.68-18.432-7.68zM516.096 238.59199999999998c-14.336 0-25.6 11.264-25.6 25.6v39.936c0 14.336 11.264 25.6 25.6 25.6s25.6-11.264 25.6-25.6v-39.936c0-14.336-11.264-25.6-25.6-25.6zM633.856 288.256c-6.656 0-13.312 2.56-17.92 7.68l-28.16 28.16c-10.24 10.24-10.24 26.112 0 36.352s26.112 10.24 36.352 0l28.16-28.16c10.24-10.24 10.24-26.112 0-36.352-5.12-5.12-11.776-7.68-18.432-7.68zM682.496 407.04h-39.936c-14.336 0-25.6 11.264-25.6 25.6s11.264 25.6 25.6 25.6h39.936c14.336 0 25.6-11.264 25.6-25.6s-11.264-25.6-25.6-25.6zM604.16 496.64c-6.656 0-13.312 2.56-17.92 7.68-10.24 10.24-10.24 26.112 0 36.352l28.672 28.672c10.24 10.24 26.112 10.24 36.352 0s10.24-26.112 0-36.352l-28.672-28.672c-5.12-5.12-11.776-7.68-18.432-7.68zM978.432 76.79999999999995H51.2c-14.336 0-25.6 11.264-25.6 25.6V762.88c0 14.336 11.264 25.6 25.6 25.6h927.232c14.336 0 25.6-11.264 25.6-25.6v-660.48c0-14.336-11.264-25.6-25.6-25.6zM76.8 128h876.032V737.28H76.8v-609.28zM726.528-100.35199999999998H303.104c-14.336 0-25.6 11.264-25.6 25.6s11.264 25.6 25.6 25.6h423.424c14.336 0 25.6-11.264 25.6-25.6s-11.264-25.6-25.6-25.6zM515.072-64c-14.336 0-25.6 11.264-25.6 25.6V87.03999999999996c0 14.336 11.264 25.6 25.6 25.6s25.6-11.264 25.6-25.6v-125.44c0-14.336-11.264-25.6-25.6-25.6z"  horiz-adv-x="1024" />

    
    <glyph glyph-name="chuhangguwen" unicode="&#58963;" d="M896 896H608c-70.4 0-128-64-128-140.8V512c0-76.8 57.6-140.8 128-140.8h12.8L544 294.4c-12.8-12.8-12.8-25.6 0-38.4 6.4-6.4 12.8-6.4 19.2-6.4 6.4 0 12.8 0 19.2 6.4l166.4 172.8H608c-44.8 0-76.8 38.4-76.8 83.2V755.2c0 44.8 32 83.2 76.8 83.2H896c44.8 0 76.8-38.4 76.8-83.2V512c0-44.8-32-83.2-76.8-83.2h-76.8l-51.2-57.6h128c70.4 0 128 64 128 140.8V755.2C1024 832 966.4 896 896 896zM262.4 185.6c70.4 0 153.6 83.2 153.6 198.4v38.4c0 76.8-38.4 160-153.6 160-108.8 0-153.6-76.8-153.6-160V384c0-108.8 83.2-198.4 153.6-198.4zM160 422.4c0 64 38.4 102.4 102.4 102.4 25.6 0 44.8-6.4 64-12.8-6.4-19.2-25.6-57.6-115.2-70.4-12.8-6.4-25.6-19.2-19.2-32 0-12.8 12.8-19.2 19.2-19.2h6.4c89.6 12.8 128 51.2 140.8 83.2 6.4-12.8 6.4-32 6.4-51.2V384c0-83.2-64-140.8-102.4-140.8-38.4 0-102.4 64-102.4 140.8v38.4zM262.4 153.6c-12.8 0-25.6-12.8-25.6-25.6v-256h51.2v249.6c0 19.2-12.8 32-25.6 32zM153.6 179.2h-6.4l-38.4-12.8c-12.8-6.4-108.8-38.4-108.8-134.4V-128h51.2v160c0 57.6 64 76.8 70.4 76.8l19.2 6.4 12.8-243.2h51.2l-19.2 281.6c-6.4 12.8-19.2 25.6-32 25.6zM416 160l-38.4 12.8h-6.4c-12.8 0-25.6-12.8-25.6-25.6L320-128h51.2l19.2 243.2 12.8-6.4s70.4-19.2 70.4-76.8V-128h51.2v160c0 96-96 128-108.8 128zM889.6 518.4c-6.4-19.2-19.2-25.6-38.4-25.6-12.8 0-32 12.8-32 25.6h-140.8c-6.4-12.8-19.2-25.6-32-25.6-19.2 0-32 12.8-38.4 25.6-12.8 6.4-25.6 25.6-25.6 44.8l6.4 44.8c0 19.2 12.8 38.4 32 44.8l12.8 70.4c6.4 25.6 32 51.2 57.6 51.2h121.6c25.6 0 51.2-19.2 57.6-51.2l12.8-70.4c19.2-6.4 32-25.6 32-44.8l6.4-44.8c0-19.2-12.8-38.4-32-44.8z m6.4 89.6c0 12.8-12.8 25.6-19.2 25.6-6.4 0-6.4 6.4-6.4 6.4l-12.8 76.8c-6.4 19.2-19.2 32-38.4 32h-121.6c-19.2 0-32-12.8-38.4-32L640 646.4c-6.4-6.4-6.4-6.4-12.8-6.4-12.8-6.4-19.2-19.2-19.2-32l-6.4-44.8c0-12.8 6.4-25.6 19.2-25.6 6.4 0 6.4-6.4 6.4-12.8 6.4-6.4 12.8-12.8 19.2-12.8 6.4 0 12.8 6.4 12.8 12.8s6.4 6.4 12.8 6.4H832c6.4 0 12.8-6.4 12.8-6.4 0-6.4 6.4-12.8 12.8-12.8s12.8 6.4 12.8 12.8 6.4 6.4 6.4 12.8c12.8 0 19.2 12.8 19.2 25.6v44.8z m-38.4-38.4c-6.4-6.4-12.8-6.4-19.2-6.4-6.4 0-12.8 0-19.2 6.4v12.8c0 6.4 0 12.8 6.4 19.2 6.4 6.4 12.8 6.4 19.2 6.4 6.4 0 12.8 0 19.2-6.4 6.4-6.4 6.4-12.8 6.4-19.2l-12.8-12.8z m-19.2 76.8L832 640h-160c-6.4 0-6.4 0-6.4 6.4v12.8l12.8 57.6c0 6.4 12.8 19.2 19.2 19.2h121.6c6.4 0 19.2-6.4 19.2-19.2l12.8-57.6-12.8-12.8z m-25.6 64h-115.2l-12.8-44.8h134.4l-6.4 44.8z m-134.4-140.8c-6.4-6.4-12.8-6.4-19.2-6.4-6.4 0-12.8 0-19.2 6.4v12.8c0 6.4 0 12.8 6.4 19.2 6.4 6.4 12.8 6.4 19.2 6.4 6.4 0 12.8 0 19.2-6.4 6.4-6.4 6.4-12.8 6.4-19.2-6.4-6.4-12.8-6.4-12.8-12.8z m0 0"  horiz-adv-x="1024" />

    
    <glyph glyph-name="guanli4" unicode="&#59116;" d="M844.526 461.997H803.1a300.823 300.823 0 0 1-28.125 69.238l37.207 37.246c24.793 24.825 24.778 65.043-0.027 89.852l-22.476 22.488a63.495 63.495 0 0 1-44.911 18.594 63.476 63.476 0 0 1-44.898-18.621l-36.512-36.567a298.58 298.58 0 0 1-71.98 30.106v42.668a63.487 63.487 0 0 1-63.488 63.488h-31.758a63.49 63.49 0 0 1-63.489-63.488v-42.653a299.038 299.038 0 0 1-71.925-30.066L324.1 680.888a63.447 63.447 0 0 1-89.785-0.055l-22.402-22.461c-24.773-24.832-24.758-65.031 0.027-89.852l37.231-37.273a299.223 299.223 0 0 1-28.125-69.234h-41.438c-35.062 0-63.488-28.426-63.488-63.489v-31.746a63.487 63.487 0 0 1 63.488-63.488h41.914a299.747 299.747 0 0 1 29.125-69.738l-38.75-38.789c-24.773-24.809-24.785-64.993-0.027-89.813l22.445-22.5a63.523 63.523 0 0 1 89.883-0.043l38.992 38.996a297.578 297.578 0 0 1 69.496-28.617v-40.676a63.489 63.489 0 0 1 63.489-63.488h31.742a63.487 63.487 0 0 1 63.488 63.488v40.676l4.453 1.242c18.801 5.434 25.028 29.039 11.7 43.348l-35.09 37.668a25.914 25.914 0 0 1-23.606 8.004 204.091 204.091 0 0 0-70.75-0.563c-87.383 14.488-156.277 86.715-166.613 174.684-15.414 131.14 94.906 241.035 226.168 224.894 87.734-10.785 159.551-79.746 173.711-167.019 3.961-24.399 3.469-48.129-0.723-70.547a25.949 25.949 0 0 1 8.231-23.895l38.843-35.293c14.336-13.023 37.547-6.746 43.09 11.825 0.602 2.019 1.192 4.07 1.75 6.101h41.914a63.493 63.493 0 0 1 63.489 63.488v31.786a63.43 63.43 0 0 1-63.446 63.488z m0 0M888.136 100.118L670.308 297.489l0.152 0.164c-1.832 1.735-3.156 3.004-3.863 3.742-11.633 11.918-7.715 22.567-4.071 29.723 25.793 49.902 3.36 120.996-33.504 157.871-36.879 36.879-72.488 43.598-90.714 44.731a75.46 75.46 0 0 1-30.801-4.864c-17.625-6.578-21.844-29.816-8.508-43.101l46.887-46.707a26.454 26.454 0 0 0 7.347-23.418l-8.277-45.586a26.404 26.404 0 0 0-21.297-21.274l-45.672-8.207a26.408 26.408 0 0 0-23.305 7.278l-46.558 46.394c-13.559 13.504-36.988 8.699-43.375-9.336-3.66-10.324-5.231-20.66-4.766-29.519 0.981-18.938 11.633-59.313 44.864-90.578 31.964-30.282 91.546-62.11 157.722-33.926 7.989 3.355 18.5 7.152 29.723-4.07C594.206 224.88 796.6 8.282 796.6 8.282c23.418-27.195 66.739-25.23 91.969-0.133 25.071 25.516 26.613 68.551-0.433 91.969z m-48.172-68.527c-13.746 0-24.887 11.144-24.887 24.89s11.141 24.891 24.887 24.891 24.89-11.145 24.89-24.891c0-13.746-11.144-24.89-24.89-24.89z m0 0"  horiz-adv-x="1024" />

    
    <glyph glyph-name="guanli5" unicode="&#58882;" d="M959.5 384c0 13.2-7 25.5-18.5 32.1l-43 25 43 25c11.4 6.7 18.5 18.9 18.5 32.1s-7 25.5-18.5 32.1l-410.3 239c-11.6 6.7-25.9 6.7-37.4 0L82.9 530.4c-11.4-6.7-18.5-18.9-18.5-32.1s7-25.5 18.5-32.1l43-25-43-25c-11.4-6.7-18.5-18.9-18.5-32.1s7-25.5 18.5-32.1l43-25-43-25c-11.4-6.7-18.5-18.9-18.5-32.1s7-25.5 18.5-32.1l410.3-238.9c5.8-3.4 12.2-5 18.7-5s12.9 1.7 18.7 5l410.3 238.9c11.4 6.7 18.5 18.9 18.5 32.1s-7 25.5-18.5 32.1l-43 25 43 25c11.6 6.5 18.6 18.8 18.6 32zM512 694.2l336.4-195.9L512 302.5 175.6 498.3 512 694.2z m0-620.4L175.6 269.7l24.3 14.1L493.3 113c5.8-3.4 12.2-5 18.7-5s12.9 1.7 18.7 5l293.5 170.8 24.3-14.1L512 73.8z m0 114.3L175.6 384l24.3 14.1 293.5-170.8c5.8-3.4 12.2-5 18.7-5s12.9 1.7 18.7 5l293.5 170.8 24.3-14.1L512 188.1z"  horiz-adv-x="1024" />

    
    <glyph glyph-name="chuhangrenqun" unicode="&#58884;" d="M519.68 820.736c-54.784 0-98.816-44.544-98.816-98.816s44.544-98.816 98.816-98.816 98.816 44.544 98.816 98.816-44.032 98.816-98.816 98.816z m232.448-94.208c-44.032 0-79.36-35.328-79.36-79.36S708.096 568.32 752.128 568.32s79.36 35.84 79.36 79.36c-0.512 43.52-35.84 78.848-79.36 78.848z m-379.904-402.432l-1.536-25.088v-1.024l16.896-289.792H311.808l-12.8 246.784h-32.256l-15.36-246.784H180.224l11.264 289.792-5.12 117.248-65.024-93.184-31.744 26.112 92.672 204.8h54.272l51.712-61.44L337.92 552.448h40.96l19.968 45.568H501.76l-7.68-12.8 10.24-20.992L482.304 404.48l34.816-35.328v-3.072l1.536 1.536 1.536-1.536v3.072l34.816 35.328-22.528 159.232 10.24 20.992-7.68 12.8h104.448l13.824-45.568h48.128l51.712-61.44 50.176 61.44h46.08l86.016-190.464-34.304-29.696-57.344 96.768-6.656-130.56v-1.024l16.896-289.792H778.24l-12.8 246.784h-31.744l-15.36-246.784h-71.168l11.264 289.792-1.024 20.992-29.696-24.576 12.8-346.112h-84.992l-18.944 294.912h-38.4l-14.848-294.912H393.216l19.968 346.112-40.96 30.72zM285.696 726.528c-44.032 0-79.36-35.328-79.36-79.36S242.176 568.32 285.696 568.32c44.032 0 79.36 35.84 79.36 79.36s-35.328 78.848-79.36 78.848z"  horiz-adv-x="1024" />

    
    <glyph glyph-name="xitongguanli" unicode="&#58962;" d="M889.344-17.115429h-194.56v19.821715a32.036571 32.036571 0 0 1-30.866286 32.036571H384a31.963429 31.963429 0 0 1-30.793143-32.036571v-19.821715h-194.56c-19.017143 0-35.620571-17.408-35.620571-37.156571 0-19.821714 16.676571-37.156571 35.620571-37.156571h730.770286c19.017143 0 35.547429 17.261714 35.547428 37.156571 0 19.675429-16.603429 37.156571-35.620571 37.156571zM899.730286 859.428571h-731.428572c-68.754286 0-146.285714-74.605714-146.285714-146.285714v-438.857143c0-71.68 77.531429-146.285714 146.285714-146.285714h731.428572c68.827429 0 146.285714 74.605714 146.285714 146.285714v438.857143c0 71.68-77.458286 146.285714-146.285714 146.285714z m73.142857-585.142857c0-32.109714-42.276571-73.142857-73.142857-73.142857h-731.428572c-30.793143 0-73.142857 41.033143-73.142857 73.142857v438.857143c0 32.109714 42.349714 73.142857 73.142857 73.142857h731.428572c30.866286 0 73.142857-41.033143 73.142857-73.142857v-438.857143z m-365.714286 365.714286h-365.714286v-73.142857h365.714286v73.142857z m-365.714286-292.571429h585.142858v73.142858h-585.142858v-73.142858z"  horiz-adv-x="1068" />

    
    <glyph glyph-name="jigouduan-shouyeqietu" unicode="&#58891;" d="M738.111117 447.99992c-92.479884 1.023999-178.303777-47.551941-224.831719-127.167841s-46.527942-178.047777 0-257.663678S645.695233-65.02343900000005 738.111117-63.99944000000005c140.735824 1.599998 254.015682 115.711855 254.015683 255.99968s-113.279858 254.463682-254.015683 255.99968z m102.911871-98.815876l22.719972-22.591972-100.159875-99.839875-22.719971 22.655971 100.159874 99.775876z m-205.887742 0l100.223875-99.775876-22.655972-22.655971-100.287875 99.839875 22.719972 22.591972zM866.494957 192.00023999999996h-96.31988v-63.99992h96.31988v-31.99996h-96.31988V0.0004800000000386717h-64.19192v95.99988H609.599278V128.00032h96.319879v63.99992H609.599278v31.99996h256.895679v-31.99996zM417.087518 192.00023999999996c0 58.367927 15.93598 112.895859 43.327946 159.9998H176.639819a15.99998 15.99998 0 0 0-16.38398 15.99998v31.93596a15.99998 15.99998 0 0 0 16.06398 16.06398h332.671585a320.639599 320.639599 0 0 0 229.119713 95.93588c33.535958 0 65.855918-5.183994 96.25588-14.655982V831.99944a63.87192 63.87192 0 0 1-64.19192 63.99992H256.511719L101.119913 893.183364A70.399912 70.399912 0 0 1 31.808 822.847451V-63.99944000000005c0-35.327956 28.735964-63.99992 64.19192-63.99992h642.111197a320.447599 320.447599 0 0 0-321.023599 319.9996zM160.255839 591.99974a15.99998 15.99998 0 0 0 16.06398 15.99998h513.663358a15.99998 15.99998 0 0 0 15.99998-15.99998v-31.93596a15.99998 15.99998 0 0 0-15.99998-16.06398H176.319819a15.93598 15.93598 0 0 0-15.99998 15.99998v31.99996z m160.5118-416.06348a15.99998 15.99998 0 0 0-4.671994-11.327986 16.38398 16.38398 0 0 0-11.391986-4.607994H176.319819a15.99998 15.99998 0 0 0-16.06398 15.99998v31.99996a15.99998 15.99998 0 0 0 16.06398 15.99998h128.44784a15.99998 15.99998 0 0 0 15.99998-15.99998v-32.06396z m0 0"  horiz-adv-x="1024" />

    
    <glyph glyph-name="chuhang1" unicode="&#59128;" d="M835.554451-17.893393v54.833604H840.781921c70.698793 0 127.945075 57.246282 127.945075 127.945075V530.442643A127.945075 127.945075 0 0 1 840.781921 658.387718H182.778679A127.945075 127.945075 0 0 1 54.833604 530.442643v-365.557357A127.945075 127.945075 0 0 1 182.778679 36.940211l1.53534-54.833604C81.811737-17.893393 0 63.918344 0 164.885286V530.442643a182.778679 182.778679 0 0 0 182.778679 182.778678h658.003242a182.778679 182.778679 0 0 0 182.778679-182.778678v-365.557357a182.778679 182.778679 0 0 0-182.778679-182.778679h-5.22747z m41.710095 3.655574a109.703763 109.703763 0 0 0-217.762518-21.933442H364.022016A109.667207 109.667207 0 0 0 146.222943-17.893393c0 1.279451 0 2.558902 0.073111 3.838352A182.742123 182.742123 0 0 0 0 164.885286V530.442643a182.778679 182.778679 0 0 0 182.778679 182.778678h73.111471V786.332793a109.667207 109.667207 0 0 0 109.667207 109.667207h329.001622a109.667207 109.667207 0 0 0 109.667207-109.667207v-73.111472h36.555735a182.778679 182.778679 0 0 0 182.778679-182.778678v-365.557357a182.778679 182.778679 0 0 0-146.296054-179.123105z m-15.609299 52.896149A127.945075 127.945075 0 0 1 968.726996 164.885286V530.442643A127.945075 127.945075 0 0 1 840.781921 658.387718H182.778679A127.945075 127.945075 0 0 1 54.833604 530.442643v-365.557357a127.945075 127.945075 0 0 1 107.071749-126.226956A109.81343 109.81343 0 0 0 359.342882 18.662343h304.874836a109.740319 109.740319 0 0 0 197.437529 19.995987zM749.392582 713.221321V786.332793A54.833604 54.833604 0 0 1 694.558979 841.166396h-329.001622A54.833604 54.833604 0 0 1 310.723754 786.332793v-73.111472h438.668828zM255.89015-72.726996a54.833604 54.833604 0 1 1 0 109.667207 54.833604 54.833604 0 0 1 0-109.667207z m511.7803 0a54.833604 54.833604 0 1 1-0.036556 109.703762A54.833604 54.833604 0 0 1 767.67045-72.726996zM539.197102 566.998379a27.416802 27.416802 0 0 0 27.416802-27.416802v-274.168018a27.416802 27.416802 0 0 0-54.833604 0v274.168018a27.416802 27.416802 0 0 0 27.416802 27.416802z m-182.778679 0a27.416802 27.416802 0 0 0 27.416802-27.416802v-164.500811a27.416802 27.416802 0 0 0-54.833604 0v164.500811A27.416802 27.416802 0 0 0 356.418423 566.998379z m365.557357 0a27.416802 27.416802 0 0 0 27.416802-27.416802v-310.723754a27.416802 27.416802 0 0 0-54.833603 0v310.723754a27.416802 27.416802 0 0 0 27.416801 27.416802z"  horiz-adv-x="1024" />

    
    <glyph glyph-name="guanli6" unicode="&#59669;" d="M310.953 156.444h160.748V260.86c0 14.118 11.275 25.55 25.205 25.55h30.35c13.896 0 25.174-11.432 25.174-25.55v-104.416h160.746v333.96H310.953v-333.96z m285.6 284.953c0 14.118 11.277 25.55 25.173 25.55h17.748c13.927 0 25.175-11.432 25.175-25.55v-86.145h-68.096v86.145z m-0.032-154.267c0 14.086 11.278 25.518 25.205 25.518h17.748c13.896 0 25.175-11.432 25.175-25.518v-86.177H596.52V287.13zM478.017 441.397c0 14.118 11.277 25.55 25.173 25.55h17.749c13.927 0 25.174-11.432 25.174-25.55v-86.145h-68.096v86.145z m-118.536 0c0 14.118 11.278 25.55 25.174 25.55h17.748c13.927 0 25.206-11.432 25.206-25.55v-86.145h-68.128v86.145z m0-154.267c0 14.086 11.278 25.518 25.174 25.518h17.779c13.895 0 25.174-11.432 25.174-25.518v-86.177H359.48V287.13zM512.064 894.22C231.48 894.22 4.02 666.761 4.02 386.175s227.46-508.046 508.045-508.046 508.046 227.46 508.046 508.046S792.65 894.22 512.064 894.22z m234.02-737.776v-40.072h-468.07v40.072h7.765v333.96h-49.792l45.724 165.573h460.707l45.724-165.574H738.35v-333.959h7.734z"  horiz-adv-x="1024" />

    
    <glyph glyph-name="xitongguanli1" unicode="&#58885;" d="M273.921673 350.308667V741.352851c0 26.431999-21.425985 47.857984-47.857984 47.857984s-47.857984-21.425985-47.857984-47.857984V350.308667c-55.759955-19.711947-95.715969-72.882937-95.715969-135.391597 0-62.512752 39.956014-115.681696 95.715969-135.39262v-8.181333c0-26.431999 21.425985-47.857984 47.857984-47.857984s47.857984 21.425985 47.857984 47.857984v8.181333c55.759955 19.710924 95.715969 72.879867 95.715969 135.39262-0.001023 62.508659-39.956014 115.679649-95.715969 135.391597z m-47.857984-183.249581c-26.431999 0-47.857984 21.425985-47.857984 47.857984s21.425985 47.857984 47.857984 47.857985 47.857984-21.425985 47.857984-47.857985-21.425985-47.857984-47.857984-47.857984z m622.151749 231.107565v343.1862c0 26.431999-21.425985 47.857984-47.857984 47.857984s-47.857984-21.425985-47.857985-47.857984v-343.1862c-55.759955-19.710924-95.715969-72.879867-95.715968-135.39262 0-62.508659 39.956014-115.679649 95.715968-135.391596v-56.039318c0-26.431999 21.425985-47.857984 47.857985-47.857984s47.857984 21.425985 47.857984 47.857984v56.039318c55.759955 19.711947 95.715969 72.882937 95.715969 135.391596 0 62.512752-39.956014 115.681696-95.715969 135.39262z m-47.857984-183.249581c-26.431999 0-47.857984 21.425985-47.857985 47.857985s21.425985 47.857984 47.857985 47.857984 47.857984-21.425985 47.857984-47.857984-21.425985-47.857984-47.857984-47.857985zM561.068556 685.313533v56.039318c0 26.431999-21.425985 47.857984-47.857985 47.857984S465.352587 767.78485 465.352587 741.352851v-56.039318c-55.759955-19.710924-95.715969-72.879867-95.715969-135.392619 0-62.508659 39.956014-115.679649 95.715969-135.391597v-343.1862c0-26.431999 21.425985-47.857984 47.857984-47.857984s47.857984 21.425985 47.857985 47.857984v343.1862c55.759955 19.711947 95.715969 72.882937 95.715968 135.391597-0.001023 62.512752-39.956014 115.682719-95.715968 135.392619z m-47.857985-183.24958c-26.431999 0-47.857984 21.425985-47.857984 47.857984s21.425985 47.857984 47.857984 47.857984 47.857984-21.425985 47.857985-47.857984-21.425985-47.857984-47.857985-47.857984z"  horiz-adv-x="1024" />

    
    <glyph glyph-name="guanli7" unicode="&#58903;" d="M606.833778 858.055111H227.555556c-52.167111 0-94.321778-42.666667-94.321778-94.776889L132.721778 4.721778c0-52.110222 42.211556-94.776889 94.378666-94.776889H796.444444c52.167111 0 94.833778 42.666667 94.833778 94.776889v568.888889l-284.444444 284.444444zM701.610667 99.555556H322.389333v94.833777h379.221334V99.555556z m0 189.610666H322.389333V384h379.221334v-94.833778zM559.388444 526.222222V786.944L820.167111 526.222222H559.388444z"  horiz-adv-x="1024" />

    
    <glyph glyph-name="baobiaoguanli" unicode="&#58893;" d="M710.06435555 710.2236444499999h-5.82542222c-17.47626667 46.60337778-58.25422222 81.55591111-110.68302222 81.5559111h-163.11182222c-52.4288 0-93.20675555-34.95253333-110.68302222-81.5559111h-5.82542222c-64.07964445 0-122.33386667-52.4288-122.33386667-122.33386667v-489.33546667c0-69.90506667 52.4288-122.33386667 122.33386667-122.33386666h401.95413333c64.07964445 0 122.33386667 52.4288 122.33386667 122.33386666v489.33546667c-5.82542222 64.07964445-58.25422222 122.33386667-128.1592889 122.33386667z m-279.62026666 0h163.11182222c23.30168889 0 40.77795555-17.47626667 40.77795556-40.77795556 0-23.30168889-17.47626667-40.77795555-40.77795556-40.77795556h-157.2864c-23.30168889 0-40.77795555 17.47626667-40.77795556 40.77795556-5.82542222 23.30168889 17.47626667 40.77795555 34.95253334 40.77795556z m320.39822222-611.66933334c0-23.30168889-17.47626667-40.77795555-40.77795556-40.77795556h-401.95413333c-23.30168889 0-40.77795555 17.47626667-40.77795555 40.77795556v489.33546667c0 23.30168889 17.47626667 40.77795555 40.77795555 40.77795555h5.82542223c17.47626667-46.60337778 58.25422222-81.55591111 110.68302222-81.55591111h163.11182222c52.4288 0 93.20675555 34.95253333 110.68302222 81.55591111h5.82542222c23.30168889 0 40.77795555-17.47626667 40.77795556-40.77795555l5.82542222-489.33546667z m-396.12871111 285.44568889h320.39822222V465.55591111h-320.39822222v-81.55591111z m0-122.33386667h320.39822222v81.55591112h-320.39822222v-81.55591112z m0-122.33386666h238.84231111v81.55591111h-238.84231111v-81.55591111z"  horiz-adv-x="1024" />

    
    <glyph glyph-name="guanli8" unicode="&#58895;" d="M849.408 408.064l70.144 47.616c4.608-25.6 7.168-52.224 7.168-79.36 0-256-207.36-463.36-463.36-463.36S0 120.832 0 376.32 207.36 839.68 463.36 839.68c91.136 0 175.616-26.624 247.296-72.192l-72.704-49.664-1.536-12.288c-51.712 27.136-110.592 43.008-173.056 43.008-205.312 0-372.736-167.424-372.736-372.736 0-205.312 167.424-372.736 372.736-372.736 205.312 0 372.736 167.424 372.736 372.736 0 11.776-0.512 23.552-1.536 35.328l14.848-3.072zM463.36 547.84c-94.208 0-171.008-76.8-171.008-171.52 0-94.208 76.8-171.008 171.008-171.008 80.896 0 148.48 56.32 166.4 131.072l94.208 63.488c0.512-7.68 1.024-15.872 1.024-23.552 0-144.896-117.248-262.144-262.144-262.144-144.896 0-262.144 117.248-262.144 262.144 0 144.896 117.248 262.144 262.144 262.144 45.056 0 87.04-11.264 123.904-31.232l-92.672-62.464c-9.728 2.048-19.968 3.072-30.72 3.072z m217.088 144.384L849.92 807.936c10.24 7.168 24.064 7.168 34.816 0.512 10.752-6.656 15.872-19.456 13.824-31.744l-16.896-92.672c-3.072-16.896 8.192-33.28 24.576-36.352l92.16-18.432c12.288-2.56 22.016-12.288 24.576-24.576s-2.56-25.088-13.312-32.256L840.192 456.704l-82.944 20.48L509.44 309.76c-35.84-24.576-84.992-15.36-109.568 20.992-24.576 35.84-15.36 84.992 20.48 109.568L668.16 607.744l12.288 84.48z"  horiz-adv-x="1024" />

    
    <glyph glyph-name="feiyongguanli" unicode="&#59044;" d="M929.688848 206.093223l-196.262905 124.584279A363.513033 363.513033 0 0 1 433.911683 896 363.086374 363.086374 0 0 1 132.264132 334.517428a132.69079 132.69079 0 0 1-69.545334-244.475314L304.634161-85.314525a246.181948 246.181948 0 0 1 141.650619-42.665849H1023.980374v264.101605s-67.412041 53.75897-94.291526 69.971992z m-394.232444-62.718798l11.946437-7.253194h-56.31892A170.663396 170.663396 0 0 0 387.832567 170.680569L383.99264 173.24052a305.06082 305.06082 0 0 1 49.065726-3.839927 315.727282 315.727282 0 0 1 66.985383 6.399877 125.437596 125.437596 0 0 1 35.412655-32.426045zM313.167331 768.002453l134.824082-122.450986L582.388838 768.002453 639.987734 715.523459 505.59031 593.072473h105.811305v-74.665236h-122.450987V469.341511h122.450987v-74.238577h-122.450987v-74.238577H407.032199v73.811918H284.581212V469.341511h122.450987V518.407237H284.581212V593.072473h105.384647L255.995093 715.523459zM938.648676-42.648676H437.75161a177.063273 177.063273 0 0 0-105.384647 34.559338l-232.955535 152.31708-2.986609 2.133293a61.438822 61.438822 0 0 0-29.012778 42.665849 65.705407 65.705407 0 0 0 63.572115 81.065113 62.718798 62.718798 0 0 0 32.852704-9.386487l184.743126-140.370643a236.795461 236.795461 0 0 1 142.503935-48.639068h56.31892a65.705407 65.705407 0 0 1 34.559338 121.59767l-8.53317 5.973218-2.986609 2.133293a66.132066 66.132066 0 0 0-20.479608 91.304916 64.85209 64.85209 0 0 0 55.038945 30.719412 68.265358 68.265358 0 0 0 34.985997-10.239804l51.625677-32.426045 203.089441-127.997547c12.373096-7.679853 20.479607-46.932434 42.665848-65.278749z"  horiz-adv-x="1024" />

    
    <glyph glyph-name="guanli9" unicode="&#59048;" d="M921.6 848.213333c0 34.133333-13.653333 47.786667-47.786667 47.786667H150.186667c-34.133333 0-47.786667-13.653333-47.786667-47.786667C40.96 848.213333 0 807.253333 0 745.813333v-771.413333c0-61.44 40.96-102.4 102.4-102.4h819.2c61.44 0 102.4 40.96 102.4 102.4V745.813333c0 54.613333-40.96 95.573333-102.4 102.4z m54.613333-116.053333V691.2h-47.786666V793.6c20.48 0 47.786667-27.306667 47.786666-61.44zM150.186667 848.213333h716.8V691.2H150.186667V848.213333z m-54.613334-54.613333L102.4 691.2H54.613333v40.96c-6.826667 34.133333 20.48 61.44 40.96 61.44z m826.026667-873.813333h-819.2c-34.133333 0-47.786667 13.653333-47.786667 47.786666V643.413333h921.6v-669.013333c0-34.133333-20.48-54.613333-54.613333-54.613333z m102.4 54.613333h-47.786667 47.786667zM798.72 254.293333h-40.96c0-54.613333-20.48-102.4-54.613333-143.36l27.306666-27.306666c6.826667-6.826667 6.826667-20.48 0-27.306667-6.826667-6.826667-20.48-6.826667-27.306666 0l-27.306667 27.306667c-40.96-27.306667-88.746667-54.613333-143.36-54.613334v-40.96c0-13.653333-6.826667-20.48-20.48-20.48-13.653333 0-20.48 6.826667-20.48 20.48v40.96c-54.613333 0-102.4 27.306667-143.36 54.613334l-27.306667-27.306667c-6.826667-6.826667-20.48-6.826667-27.306666 0-6.826667 6.826667-6.826667 20.48 0 27.306667l27.306666 27.306666c-34.133333 40.96-54.613333 88.746667-54.613333 143.36h-40.96c-13.653333 0-20.48 13.653333-20.48 20.48 0 13.653333 6.826667 20.48 20.48 20.48h40.96c0 54.613333 20.48 102.4 54.613333 143.36l-27.306666 27.306667c-6.826667 6.826667-6.826667 20.48 0 27.306667s20.48 6.826667 27.306666 0l27.306667-27.306667c40.96 34.133333 88.746667 54.613333 143.36 61.44v34.133333c0 13.653333 6.826667 20.48 20.48 20.48 13.653333 0 20.48-6.826667 20.48-20.48v-40.96c54.613333-6.826667 102.4-27.306667 143.36-61.44l27.306667 27.306667c6.826667 6.826667 20.48 6.826667 27.306666 0 6.826667-6.826667 6.826667-20.48 0-27.306667l-27.306666-20.48c34.133333-40.96 54.613333-88.746667 54.613333-143.36h40.96c13.653333 0 20.48-6.826667 20.48-20.48 0-6.826667-6.826667-20.48-20.48-20.48zM512 486.4C395.946667 486.4 300.373333 390.826667 300.373333 274.773333c0-116.053333 95.573333-211.626667 211.626667-211.626666s211.626667 95.573333 211.626667 211.626666C723.626667 390.826667 628.053333 486.4 512 486.4z m0-327.68c-61.44 0-116.053333 54.613333-116.053333 116.053333 0 61.44 54.613333 116.053333 116.053333 116.053334 61.44 0 116.053333-54.613333 116.053333-116.053334 0-61.44-54.613333-116.053333-116.053333-116.053333z m0 191.146667c-40.96 0-75.093333-34.133333-75.093333-75.093334s34.133333-75.093333 75.093333-75.093333 75.093333 34.133333 75.093333 75.093333S552.96 349.866667 512 349.866667z"  horiz-adv-x="1024" />

    
    <glyph glyph-name="guanli10" unicode="&#58904;" d="M376.832 755.2H171.008c-40.96 0-74.24-33.28-74.24-74.24v-205.824c0-40.96 33.28-74.24 74.24-74.24h205.824c40.96 0 74.24 33.28 74.24 74.24V680.96c0 40.96-33.28 74.24-74.24 74.24zM414.72 486.4c0-27.136-22.016-48.64-48.64-48.64h-184.32c-27.136 0-48.64 22.016-48.64 48.64V670.208c0 27.136 22.016 48.64 48.64 48.64h183.808c27.136 0 48.64-22.016 48.64-48.64V486.4zM905.216 630.784l-145.408 145.408c-29.184 29.184-75.776 29.184-104.96 0L509.44 630.784c-29.184-29.184-29.184-75.776 0-104.96l145.408-145.408c29.184-29.184 75.776-29.184 104.96 0l145.408 145.408c29.184 29.184 29.184 75.776 0 104.96z m-163.328-217.088c-18.944-18.944-50.176-18.944-69.12 0L542.72 543.744c-18.944 18.944-18.944 50.176 0 69.12l130.048 130.048c18.944 18.944 50.176 18.944 69.12 0l130.048-130.048c18.944-18.944 18.944-50.176 0-69.12l-130.048-130.048zM376.832 324.096H171.008c-40.96 0-74.24-33.28-74.24-74.24v-205.824c0-40.96 33.28-74.24 74.24-74.24h205.824c40.96 0 74.24 33.28 74.24 74.24v205.824c0 40.96-33.28 74.24-74.24 74.24z m37.888-268.8c0-27.136-22.016-48.64-48.64-48.64h-184.32c-27.136 0-48.64 22.016-48.64 48.64v183.808c0 27.136 22.016 48.64 48.64 48.64h183.808c27.136 0 48.64-22.016 48.64-48.64v-183.808zM810.496 324.096h-205.824c-40.96 0-74.24-33.28-74.24-74.24v-205.824c0-40.96 33.28-74.24 74.24-74.24h205.824c40.96 0 74.24 33.28 74.24 74.24v205.824c0 40.96-33.28 74.24-74.24 74.24z m37.888-268.8c0-27.136-22.016-48.64-48.64-48.64h-183.808c-27.136 0-48.64 22.016-48.64 48.64v183.808c0 27.136 22.016 48.64 48.64 48.64h183.808c27.136 0 48.64-22.016 48.64-48.64v-183.808z"  horiz-adv-x="1024" />

    
    <glyph glyph-name="tupianguanli1" unicode="&#59278;" d="M976.4 229.9l-36.2 88.9-52.7-21.4 0.2-0.5c-9 11.8-19.3 22.4-31.1 31.8l22.1 52.4-88.3 37.5-22-52.2c-8 1.1-16 1.6-23.9 1.6-6.8 0-13.6-0.4-20.4-1.2l-21.3 52.3-88.9-36.2L635 331c-11.8-9-22.6-19.5-32-31.3l-51.4 21.7-37.3-88.5 51.2-21.6c-2-15.1-2.1-30.2-0.3-45l-51.5-20.9 36.2-88.9 51.5 21c9.1-11.8 19.7-22.5 31.6-31.9l-21.7-51.4 88.5-37.3 21.8 51.7c7.6-1 15.1-1.4 22.6-1.4 7.4 0 14.7 0.5 21.9 1.3l21.2-52.1 88.9 36.2-21.4 52.5c11.5 8.9 22.1 19.3 31.3 31.1l52.4-22.1 37.3 88.5-52.3 22-0.3-0.7c2 15.2 2.1 30.5 0.2 45.4l0.3-0.8 52.7 21.4z m-124.7-87.6c-12.1-28.6-34.6-50.9-63.4-62.6-14.2-5.7-29.1-8.6-43.9-8.6-15.3 0-30.7 3.1-45.2 9.2-28.7 12.1-50.9 34.6-62.6 63.4-11.7 28.8-11.5 60.4 0.6 89.1 12.1 28.6 34.6 50.9 63.4 62.6 14.2 5.8 29 8.6 43.9 8.6 15.3 0 30.7-3.1 45.2-9.2 28.6-12.1 50.9-34.6 62.6-63.4 11.7-28.8 11.5-60.4-0.6-89.1zM64.3 797.8v-704h319.8v96H160.3V358.5l151.3 135.1L421 371.1l71.6 64 105.7 94.5 69.9-78.3 71.5 64.2-70.2 78.6-63.5 71-177.4-158.4-47.3 53-62.1 69.5-158.9-142V701.8h704v-189.6h96V797.8z"  horiz-adv-x="1024" />

    
    <glyph glyph-name="xitongzidian1" unicode="&#58881;" d="M205.5 131h239.2c16.6 0 30.8-11.9 33.7-28.2 3.4-19.5 19.5-28.8 35.2-28.1 15.1-0.7 30.6 7.9 34.9 26.2 4.2 18.1 18.1 30.1 32.9 30.1h239.2c56.6 0 102.5 45.9 102.5 102.5V700.1c0 56.6-45.9 102.5-102.5 102.5H581.4c-26.1 0-49.4-10.6-67.3-27.5-18.8 17.6-43.6 27.4-69.4 27.5H205.5c-56.6 0-102.5-45.9-102.5-102.5v-466.6c0-56.6 45.9-102.5 102.5-102.5z m375.9 603.3h239.2c18.9 0 34.2-15.3 34.2-34.2v-466.6c0-18.9-15.3-34.2-34.2-34.2H581.4c-12 0-23.5-2.2-34.2-6.2v500c0.1 23.4 16.1 41.2 34.2 41.2z m-410.1-34.2c0 18.9 15.3 34.2 34.2 34.2h239.2c18.9 0 34.2-15.3 34.2-34.2v-506.7c-11 3.9-22.5 5.9-34.2 5.8H205.5c-18.9 0-34.2 15.3-34.2 34.2V700.1z m0 0M989.4 631.8c-18.9 0-34.2-15.3-34.2-34.2v-478.5c0-18.9-15.3-34.2-34.2-34.2H681.8c-36.6 0-70.5-19.5-88.8-51.3H431c-18.3 31.7-52.2 51.3-88.8 51.3H103c-18.9 0-34.2 15.3-34.2 34.2V597.6c0 18.9-15.3 34.2-34.2 34.2-18.9 0-34.2-15.3-34.2-34.2v-478.5c0-56.6 45.9-102.5 102.5-102.5h239.2c15.7 0 29.3-10.7 33.1-25.6 3.9-15.1 17.5-25.7 33.1-25.7h207.2c15.6 0 29.2 10.6 33.1 25.7 3.9 15.1 17.5 25.6 33.1 25.6H921c56.6 0 102.5 45.9 102.5 102.5V597.6c0.1 18.9-15.2 34.2-34.1 34.2z m0 0M256.8 580.5h120.8c18.9 0 34.2 15.3 34.2 34.2 0 18.9-15.3 34.2-34.2 34.2H256.8c-18.9 0-34.2-15.3-34.2-34.2 0-18.9 15.3-34.2 34.2-34.2z m0-136.7h120.8c18.9 0 34.2 15.3 34.2 34.2 0 18.9-15.3 34.2-34.2 34.2H256.8c-18.9 0-34.2-15.3-34.2-34.2 0-18.9 15.3-34.2 34.2-34.2z m0 0"  horiz-adv-x="1024" />

    
    <glyph glyph-name="xitongzidian2" unicode="&#59005;" d="M844.6 648.8H259.1c-30.7 0-55.7 25-55.7 55.7 0 30.7 25 55.7 55.7 55.7h533.4c13.3 0 24 10.7 24 24s-10.7 24-24 24H259.1c-57.2 0-103.7-46.5-103.7-103.7v-665c0-44 35.8-79.8 79.8-79.8H843c14.1 0 25.6 11.5 25.6 25.6V624.8c0 13.3-10.8 24-24 24z m-24-641.1H235.2c-17.5 0-31.8 14.3-31.8 31.8V617.1c16.1-10.3 35.2-16.3 55.7-16.3h561.5v-593.1zM790.5 728.5H254.4c-13.3 0-24-10.7-24-24s10.7-24 24-24h536.1c13.3 0 24 10.7 24 24s-10.8 24-24 24zM338.4 470.9H383c0.9 0 1.7 0.8 1.7 1.7v44.6c0 0.9-0.8 1.7-1.7 1.7h-44.6c-0.9 0-1.7-0.8-1.7-1.7v-44.6c0-0.9 0.8-1.7 1.7-1.7zM438.1 470.9h248.5c0.9 0 1.7 0.8 1.7 1.7v44.6c0 0.9-0.8 1.7-1.7 1.7H438.1c-0.9 0-1.7-0.8-1.7-1.7v-44.6c0-0.9 0.8-1.7 1.7-1.7zM337.4 360.1H382c0.9 0 1.7 0.8 1.7 1.7v44.6c0 0.9-0.8 1.7-1.7 1.7h-44.6c-0.9 0-1.7-0.8-1.7-1.7v-44.6c0-1 0.8-1.7 1.7-1.7zM437.4 360.1h248.5c0.9 0 1.7 0.8 1.7 1.7v44.6c0 0.9-0.8 1.7-1.7 1.7H437.4c-0.9 0-1.7-0.8-1.7-1.7v-44.6c0-1 0.8-1.7 1.7-1.7zM337.4 249.1H382c0.9 0 1.7 0.8 1.7 1.7v44.6c0 0.9-0.8 1.7-1.7 1.7h-44.6c-0.9 0-1.7-0.8-1.7-1.7v-44.6c0-1 0.8-1.7 1.7-1.7zM437.4 249.1h248.5c0.9 0 1.7 0.8 1.7 1.7v44.6c0 0.9-0.8 1.7-1.7 1.7H437.4c-0.9 0-1.7-0.8-1.7-1.7v-44.6c0-1 0.8-1.7 1.7-1.7z"  horiz-adv-x="1024" />

    
    <glyph glyph-name="tupianguanli2" unicode="&#58953;" d="M720.3 442.4c32.1-0.6 62.1 16.2 78.4 44 16.2 27.7 16.2 62.1 0 89.9-16.2 27.7-46.2 44.6-78.4 44-48.5-0.9-87.3-40.4-87.3-88.9 0-48.6 38.8-88.2 87.3-89z m155.5 296.2H149.9c-28.9 0-51.9-23.5-51.9-52.4V80c0-28.9 23-52.4 51.9-52.4h725.9c28.9 0 51.9 23.5 51.9 52.4V686.2c0 28.9-23 52.4-51.9 52.4zM684.9 372.5c-5.9 7.1-14.5 11.3-23.7 11.5-9.4 0-16.1-4.4-23.7-10.5l-34.6-29.3c-7.2-5.2-13-8.7-21.3-8.7-7.5 0-14.7 2.7-20.4 7.6-2.7 2.5-5.4 5-8 7.6l-99.6 107.8c-7.8 8.9-19.1 14-30.9 13.9-12.4 0-23.9-6.1-31.1-14.5L157.3 175.4V657.7c1.8 12.6 11.6 21.7 24.2 21.7H844c12.8 0 23.1-9.5 23.9-22.2l0.5-482.2-183.5 197.5z m0 0"  horiz-adv-x="1024" />

    
    <glyph glyph-name="chuhang2" unicode="&#58892;" d="M757.248 896h-445.44c-98.304 0-178.176-79.872-178.176-178.176v-578.56c0-82.944 56.832-152.576 133.632-172.544v-72.704c0-12.288 9.728-22.016 22.016-22.016H379.392c12.288 0 22.016 9.728 22.016 22.016v67.072h267.264v-67.072c0-12.288 9.728-22.016 22.016-22.016H780.288c12.288 0 22.016 9.728 22.016 22.016v72.704c76.8 19.968 133.632 89.6 133.632 172.544v578.56C935.424 816.128 855.552 896 757.248 896z m-355.84-89.088h267.264v-44.544h-267.264v44.544z m-67.072-712.192c-36.864 0-66.56 29.696-66.56 66.56s29.696 66.56 66.56 66.56 66.56-29.696 66.56-66.56c0.512-36.864-29.696-66.56-66.56-66.56z m400.896 0c-36.864 0-66.56 29.696-66.56 66.56s29.696 66.56 66.56 66.56 66.56-29.696 66.56-66.56-29.696-66.56-66.56-66.56zM846.336 317.44h-623.104v356.352H846.336V317.44z m-778.752 44.544c12.288 0 22.016 9.728 22.016 22.016v134.144c0 12.288-9.728 22.016-22.016 22.016h-45.568c-12.288 0-22.016-9.728-22.016-22.016v-131.584c0-13.312 10.752-24.576 24.576-24.576h43.008z m912.384 21.504c0-12.288 9.728-22.016 22.016-22.016h45.568c12.288 0 22.016 9.728 22.016 22.016v134.144c0 12.288-9.728 22.016-22.016 22.016h-42.496c-13.312 0-24.576-10.752-24.576-24.576v-131.584z"  horiz-adv-x="1069" />

    
    <glyph glyph-name="guanli11" unicode="&#59004;" d="M671.674 294.396l-33.241 4.076a131.327 131.327 0 0 1-10.437 25.964l20.636 26.407c4.987 6.378 3.668 16.422-2.68 22.771l-21.49 21.491c-6.349 6.348-16.395 7.666-22.771 2.681l-25.655-20.049a131.486 131.486 0 0 1-26.594 11.371l-3.962 32.299c-0.983 8.036-9.02 14.207-17.995 14.207H497.09c-8.978 0-17.012-6.171-17.998-14.206l-3.87-31.554a131.459 131.459 0 0 1-27.416-11.155l-25.163 19.666c-6.378 4.984-16.423 3.667-22.772-2.681l-21.491-21.492c-6.348-6.348-7.665-16.392-2.681-22.771l19.517-24.973a131.426 131.426 0 0 1-11.342-27.336l-31.795-3.901c-8.036-0.984-14.207-9.021-14.207-17.996v-30.395c0-8.977 6.171-17.011 14.207-17.997l32.047-3.93a131.515 131.515 0 0 1 11.193-26.673l-20.198-25.847c-4.984-6.377-3.667-16.422 2.681-22.769l21.492-21.492c6.347-6.35 16.393-7.666 22.771-2.682l26.198 20.474a131.7 131.7 0 0 1 25.903-10.604l4.108-33.488c0.985-8.036 9.02-14.208 17.997-14.208h30.393c8.978 0 17.012 6.172 17.998 14.208l4.139 33.741a131.705 131.705 0 0 1 25.243 10.45l27.066-21.151c6.379-4.984 16.424-3.665 22.771 2.682l21.491 21.49c6.349 6.35 7.667 16.393 2.68 22.772l-21.001 26.873a131.417 131.417 0 0 1 10.628 25.166l33.993 4.171c8.037 0.984 14.209 9.019 14.207 17.997l0.002 30.394c0.002 8.978-6.17 17.011-14.207 17.999zM511.878 176.942c-46.759 0-84.666 37.906-84.666 84.667 0 46.758 37.906 84.665 84.666 84.665 46.761 0 84.667-37.907 84.667-84.665 0-46.76-37.906-84.667-84.667-84.667zM813.153-54.873H223.848c-46.471 0-84.277 37.806-84.277 84.276V578.379c0 46.47 37.806 84.276 84.277 84.276h95.515v-48.159h-95.515c-19.916 0-36.119-16.202-36.119-36.118v-548.976c0-19.916 16.203-36.118 36.119-36.118h589.306c19.916 0 36.119 16.202 36.119 36.118V578.379c0 19.916-16.203 36.118-36.119 36.118h-92.892v48.159h92.892c46.472 0 84.277-37.807 84.277-84.276v-548.976c0-46.471-37.806-84.277-84.278-84.277zM719.158 675.401h-64.356a90.438 90.438 0 0 1 1.199 14.668c0 49.553-40.172 89.724-89.726 89.724-49.553 0-89.726-40.171-89.726-89.724 0-4.997 0.415-9.894 1.2-14.668h-64.356c-13.214 0-23.928-10.713-23.928-23.928v-126.212c0-13.213 10.713-23.928 23.928-23.928h305.765c13.214 0 23.927 10.714 23.927 23.928V651.474c0 13.214-10.713 23.927-23.927 23.927zM672.203 513.374H366.438c-26.472 0-48.007 21.535-48.007 48.006V687.592c0 26.472 21.535 48.008 48.007 48.008H405.9c4.8 58.367 53.836 104.391 113.42 104.391S627.942 793.967 632.74 735.6h39.463c26.471 0 48.007-21.536 48.007-48.008V561.38c0-26.471-21.536-48.006-48.007-48.006zM366.59 561.533h305.46V687.44l-92.562 0.001 4.598 27.982c0.584 3.558 0.88 7.179 0.88 10.764 0 36.197-29.448 65.645-65.646 65.645-36.197 0-65.646-29.448-65.646-65.645 0-3.585 0.296-7.206 0.88-10.761l4.601-27.985h-92.564l-0.001-125.908z"  horiz-adv-x="1024" />

    
    <glyph glyph-name="tupian" unicode="&#58922;" d="M847.657 831.984H175.703c-61.766 0-111.993-50.227-111.993-111.992v-671.954c0-61.765 50.226-111.993 111.993-111.993h671.954c61.765 0 111.992 50.228 111.992 111.993V719.99c0 61.765-50.227 111.993-111.992 111.993z m55.995-783.946c0-30.87-25.127-55.997-55.996-55.997H175.703c-30.87 0-55.996 25.127-55.996 55.997V719.99c0 30.87 25.128 55.996 55.996 55.996h671.954c30.87 0 55.996-25.127 55.996-55.996v-671.953zM835.19 351.314l-83.995 55.996c-10.444 6.945-23.54 5.688-32.782-1.722l-0.246 0.3-133.184-106.551-197.435 135.752c-0.083 0.055-0.164 0.055-0.218 0.11-2.297 1.53-4.895 2.379-7.52 3.199-0.874 0.273-1.666 0.875-2.57 1.04-2.378 0.492-4.811 0.218-7.273 0.081-1.121-0.082-2.27 0.218-3.363 0-1.23-0.218-2.35-0.984-3.554-1.394-2.27-0.739-4.566-1.367-6.616-2.707-0.083-0.055-0.192-0.055-0.274-0.11L188.17 323.316c-12.878-8.585-16.35-25.946-7.765-38.824 5.386-8.094 14.273-12.47 23.323-12.47 5.332 0 10.718 1.533 15.503 4.704L371.444 378.19 803.8 80.958a27.793 27.793 0 0 1 15.831-4.923c8.913 0 17.663 4.238 23.105 12.14 8.749 12.74 5.523 30.156-7.219 38.934L633.214 266.198l103.956 83.147 66.959-44.621c4.786-3.172 10.171-4.704 15.503-4.704 9.05 0 17.937 4.374 23.323 12.469 8.584 12.877 5.112 30.24-7.766 38.825zM581.674 468.009c69.476 0 125.992 56.516 125.992 125.99 0 69.477-56.516 125.993-125.992 125.993-69.475 0-125.99-56.516-125.99-125.992s56.516-125.991 125.99-125.991z m0 195.985c38.607 0 69.995-31.387 69.995-69.994s-31.388-69.995-69.995-69.995c-38.606 0-69.995 31.39-69.995 69.995 0 38.607 31.39 69.994 69.995 69.994z"  horiz-adv-x="1024" />

    
    <glyph glyph-name="guanli12" unicode="&#59197;" d="M483.036844-121.140305H178.161518a114.328247 114.328247 0 0 0-114.328247 114.328247V781.671753a114.328247 114.328247 0 0 0 114.328247 114.328247h602.890957a114.328247 114.328247 0 0 0 114.328247-114.328247v-447.785635a38.109416 38.109416 0 1 0-76.218831 0V781.671753a38.109416 38.109416 0 0 1-38.109416 38.109416H178.161518a38.109416 38.109416 0 0 1-38.109415-38.109416v-788.864905a38.109416 38.109416 0 0 1 38.109415-38.109416h304.875326a38.109416 38.109416 0 0 0 0-76.218831zM256.666915 425.72981m32.011909 0l266.003722 0q32.011909 0 32.011909-32.011909l0 0q0-32.011909-32.011909-32.011909l-266.003722 0q-32.011909 0-32.011909 32.011909l0 0q0 32.011909 32.011909 32.011909ZM256.666915 269.8623m32.011909 0l147.102345 0q32.011909 0 32.011909-32.011909l0 0q0-32.011909-32.011909-32.011909l-147.102345 0q-32.011909 0-32.011909 32.011909l0 0q0 32.011909 32.011909 32.011909ZM256.666915 581.59732m32.011909 0l381.475251 0q32.011909 0 32.011909-32.011909l0 0q0-32.011909-32.011909-32.011909l-381.475251 0q-32.011909 0-32.011909 32.011909l0 0q0 32.011909 32.011909 32.011909ZM814.207667-128a38.109416 38.109416 0 0 0-27.43878 11.813919 57.926312 57.926312 0 0 1-28.963156 18.292519 31.249721 31.249721 0 0 1-15.62486-6.859694 87.270562 87.270562 0 0 1-13.338296-11.051731 38.109416 38.109416 0 0 0-27.057685-11.432825h-5.716412l-8.384072 3.048754-46.493487 25.914402a35.822851 35.822851 0 0 0-14.100484 44.206922 38.109416 38.109416 0 0 1 3.048754 12.957202 34.679568 34.679568 0 0 1-34.679569 34.679568h-9.146259l-8.765166 5.716412a38.109416 38.109416 0 0 0-12.576107 22.103462 240.089319 240.089319 0 0 0-4.192036 38.109415 240.089319 240.089319 0 0 0 3.810942 38.109416 38.109416 38.109416 0 0 0 12.576107 23.246744l7.240789 5.716412h9.14626a35.060662 35.060662 0 0 1 38.109415 34.679568 38.109416 38.109416 0 0 1-3.048753 12.957202 35.060662 35.060662 0 0 0 11.432825 42.301451l57.545217 30.487533h8.384072a38.109416 38.109416 0 0 0 27.057685-11.432825 56.401935 56.401935 0 0 1 28.200968-17.149237 57.926312 57.926312 0 0 1 28.200967 16.768143 38.109416 38.109416 0 0 0 26.676591 11.05173h5.716413l8.765165-3.048753 47.255676-26.295497a38.109416 38.109416 0 0 0 15.243766-41.158169l-2.667659-6.859695a33.536286 33.536286 0 0 1 0-8.765165 34.679568 34.679568 0 0 1 34.679568-34.679569h8.384072l8.384071-4.573129a35.822851 35.822851 0 0 0 14.100484-23.246744 239.708225 239.708225 0 0 0 4.192036-38.109416 247.330108 247.330108 0 0 0-4.192036-38.109415 38.109416 38.109416 0 0 0-12.576107-22.103462l-7.240789-5.716412h-9.14626a35.060662 35.060662 0 0 1-38.109416-34.679568 40.777075 40.777075 0 0 1 3.048754-12.957202 35.441757 35.441757 0 0 0-11.432825-42.301451l-54.496465-31.249721z m-137.574991 53.353182z m81.173055 30.106438a94.511351 94.511351 0 0 0 58.6885-26.295496l19.435802 11.05173a80.791961 80.791961 0 0 0-2.286564 18.29252 88.03275 88.03275 0 0 0 68.596948 85.365091 105.944176 105.944176 0 0 1 0 31.630815 88.03275 88.03275 0 0 0-68.215854 85.746185 81.55415 81.55415 0 0 0 2.286565 18.29252l-19.435802 10.670636a94.511351 94.511351 0 0 0-57.164124-24.390026 94.892445 94.892445 0 0 0-57.545218 24.77112l-20.960178-11.432824a80.791961 80.791961 0 0 0 2.286565-18.29252 88.03275 88.03275 0 0 0-68.215854-85.746185 134.145143 134.145143 0 0 1 0-15.624861 136.812802 136.812802 0 0 1 0-16.005954 88.03275 88.03275 0 0 0 68.215854-85.746186 81.173055 81.173055 0 0 0-2.286565-18.292519l18.292519-10.289542a148.245627 148.245627 0 0 0 12.195013 10.289542 82.316338 82.316338 0 0 0 46.112393 16.005954z m68.596949 243.900261z m-133.382955 0zM758.186825-23.961295a83.840715 83.840715 0 1 0 83.840715 83.840714 83.840715 83.840715 0 0 0-83.840715-83.840714z m0 114.328247a30.487533 30.487533 0 1 1 30.487533-30.487533 30.487533 30.487533 0 0 1-30.487533 30.487533z"  horiz-adv-x="1024" />

    
    <glyph glyph-name="guanli13" unicode="&#59694;" d="M725.333333 234.666667h117.333334a53.333333 53.333333 0 1 0 0-106.666667H725.333333v-53.333333a53.333333 53.333333 0 1 0-106.666666 0v213.333333a53.333333 53.333333 0 1 0 106.666666 0V234.666667z m-213.333333 0v-106.666667H181.333333a53.333333 53.333333 0 1 0 0 106.666667H512z m-192 405.333333V693.333333a53.333333 53.333333 0 1 0 106.666667 0v-213.333333a53.333333 53.333333 0 1 0-106.666667 0V533.333333H181.333333a53.333333 53.333333 0 0 0 0 106.666667H320z m213.333333 0h309.333334a53.333333 53.333333 0 1 0 0-106.666667H533.333333v106.666667z"  horiz-adv-x="1024" />

    
    <glyph glyph-name="icon-test1" unicode="&#58896;" d="M913.6 615.3l-2.3 17.4H774.5c0.3 20.6 0.3 33.7 0.3 34v20h-502l-1.2-18.7c-0.8-11.8-1.4-23.6-1.8-35.4H135l-2.3-17.4c-0.5-3.5-11.2-87.3-2.8-156.5 5.8-47.9 35.9-91 80.4-115.2 28.5-15.5 72.3-35.4 118.9-42 1.4-0.2 2.8-0.3 4.1-0.3 2.7 0 5.4 0.4 7.9 1.1 12.1-15 25.6-28.8 40.6-41 38.8-31.7 79.2-49.7 120.3-53.9l1-169.8-165.2-0.4 0.1-40 370.6 0.9-0.1 40-165.4-0.4-1 170c30 3.5 60.1 14.2 90 32.3 27.3 16.6 51.4 37.9 71.3 62.8 3-1.1 6.3-1.7 9.6-1.7 1.4 0 2.7 0.1 4.1 0.3 46.6 6.6 90.4 26.5 118.9 42 44.5 24.2 74.5 67.3 80.4 115.2 8.4 69.4-2.3 153.1-2.8 156.7zM229.5 378.7c-33.2 18-55.5 49.8-59.8 84.9-5.6 46.2-1.8 101.5 0.8 129.1h98.7c0-3.6 0-7.2 0.1-10.8-7-123.8 12.8-194.4 36.5-234.6-29.7 8.1-56.9 20.9-76.3 31.4z m381.9-104.3c-31-18.8-62.2-28.1-92.7-27.7-37.5 0.5-75 15.9-111.5 45.7-48.7 39.8-80.4 98.7-89.1 165.7-5.3 40.6-8.2 81.7-8.8 122.8 0.4 6.9 0.9 13.9 1.5 21.1 0.3 3.9-0.2 7.7-1.4 11.3 0.2 11.1 0.6 22.3 1.1 33.4h424.3c-0.3-34.6-1.5-107.8-6-171-6-85.1-49.9-160.4-117.4-201.3z m265.3 189.2c-4.3-35.1-26.6-66.8-59.8-84.9-19.4-10.6-46.6-23.4-76.3-31.5 24.5 41.3 44.7 114.8 35.9 245.4h99.4c2.6-27.5 6.4-82.7 0.8-129zM587.4 540.1l-41 6-18.3 37.1c-1.7 3.4-5.2 5.6-9 5.6s-7.3-2.2-9-5.6L491.8 546l-41-6c-3.8-0.5-6.9-3.2-8.1-6.8s-0.2-7.6 2.5-10.3l29.7-28.9-7-40.8c-0.6-3.8 0.9-7.5 4-9.8 1.7-1.3 3.8-1.9 5.9-1.9 1.6 0 3.2 0.4 4.7 1.1l36.7 19.3 36.7-19.3c3.4-1.8 7.5-1.5 10.5 0.8 3.1 2.2 4.6 6 4 9.8l-7 40.8 29.7 28.9c2.7 2.7 3.7 6.6 2.5 10.3-1.3 3.7-4.5 6.3-8.2 6.9z m-41.9-35.4c-2.4-2.3-3.4-5.6-2.9-8.9l4.5-26-23.4 12.3c-1.5 0.8-3.1 1.1-4.7 1.1s-3.2-0.4-4.7-1.1l-23.4-12.3 4.5 26c0.6 3.2-0.5 6.6-2.9 8.9l-18.9 18.4 26.1 3.8c3.3 0.5 6.1 2.5 7.5 5.5l11.7 23.7 11.7-23.7c1.5-3 4.3-5 7.5-5.5l26.1-3.8-18.7-18.4zM523.2 327.6c-76.3 0-143.5 42.3-182.8 106.6 19.8-86.1 94-150.2 182.8-150.2s163 64.1 182.8 150.2C666.7 370 599.5 327.6 523.2 327.6z"  horiz-adv-x="1024" />

    
    <glyph glyph-name="xitongguanli2" unicode="&#58912;" d="M878-46H167.8c-42.3 0-76.8 34.4-76.8 76.7V528.6c0 42.3 34.4 76.7 76.8 76.7H878c42.3 0 76.8-34.4 76.8-76.7v-497.9c-0.1-42.3-34.5-76.7-76.8-76.7zM167.8 529.6l-0.9-498.8 711.1-0.9c0.4 0 0.9 0.5 0.9 0.9V528.6l-711.1 1zM882 530.9H167.8c-41.6 0-75.4 33.8-75.4 75.4v131c0 41.6 33.8 75.4 75.4 75.4H882c41.6 0 75.4-33.8 75.4-75.4v-131c0-41.6-33.8-75.4-75.4-75.4zM167.8 739.6l-2.3-133.3L882 604c1.2 0 2.3 1.1 2.3 2.3v131l-716.5 2.3zM226 700.7h55.8v-57.8H226z m272.3 0h54.3v-57.8h-54.3z m-133.5 0h54.3v-57.8h-54.3z m83.5-446.3L325.6 377S287.7 262.9 361 199.2s165.6-30.8 173.2-27l120.4-120.4s28.8-2.5 55.3 21 19 46.3 19 46.3L609.4 238.6s38.6 44.9 7 138.4-144.1 96.1-217.4 77.1l120.7-120.7-71.4-79z"  horiz-adv-x="1024" />

    
    <glyph glyph-name="saishiguanli" unicode="&#59077;" d="M511.744 896C229.12 896 0 666.88 0 384.256s229.12-511.744 511.744-511.744 511.744 229.12 511.744 511.744C1023.232 666.88 794.368 896 511.744 896z m0-953.6c-243.968 0-441.856 197.888-441.856 441.856S267.776 826.112 511.744 826.112s441.856-197.888 441.856-441.856-197.888-441.856-441.856-441.856z m0 0M733.44 603.136v35.072c0 19.2-15.616 34.816-34.816 34.816H326.4c-19.2 0-34.816-15.616-34.816-34.816v-35.072H188.928v-104.704c0-67.328 52.224-122.368 118.016-127.488 28.928-72.96 96-126.976 176.384-137.728v-126.208h-46.592c-19.2 0-34.816-15.616-34.816-34.816s15.616-34.816 34.816-34.816h162.816c19.2 0 34.816 15.616 34.816 34.816s-15.616 34.816-34.816 34.816H552.96v128c75.264 14.08 136.96 66.304 164.608 135.936 65.28 5.632 116.736 60.672 116.736 127.232v104.704h-100.864zM258.56 498.432v34.816h32.768v-81.152c0-2.048 0.256-3.84 0.256-5.888-19.456 9.472-33.024 29.184-33.024 52.224z m404.992-46.336c0-83.456-67.84-151.296-151.296-151.296S360.96 368.64 360.96 452.096v151.296h302.336v-151.296z m101.12 46.336c0-22.528-12.8-41.728-31.488-51.456 0 1.792 0.256 3.328 0.256 5.12v81.152h31.232v-34.816z m0 0"  horiz-adv-x="1024" />

    
    <glyph glyph-name="cebianlan-xitongguanli" unicode="&#59081;" d="M508.48 512.128a122.24 122.24 0 0 0 122.112-122.112 122.24 122.24 0 0 0-122.112-122.176 122.24 122.24 0 0 0-122.176 122.176 122.24 122.24 0 0 0 122.176 122.112z m0 54.336a176.448 176.448 0 1 1 0-352.896 176.448 176.448 0 0 1 0 352.896z m436.16-284.16a445.12 445.12 0 0 1 0 203.392 27.136 27.136 0 1 1-52.864-12.352 390.784 390.784 0 0 0 0-178.688 27.136 27.136 0 1 1 52.864-12.352z m-32.064-20.864l4.48-0.064a27.136 27.136 0 1 1 2.368 54.208 155.264 155.264 0 0 1-6.848 0.128 27.136 27.136 0 0 1 0-54.272z m-88.704-163.392a105.728 105.728 0 0 0 88.64 163.392 27.136 27.136 0 0 1 0 54.272 160 160 0 0 1-134.144-247.296 27.136 27.136 0 0 1 45.504 29.632z m-183.744-139.648a443.52 443.52 0 0 1 179.84 105.28 27.136 27.136 0 1 1-37.632 39.104 389.248 389.248 0 0 0-157.824-92.352 27.136 27.136 0 1 1 15.616-52.032z m-223.808 14.464a105.728 105.728 0 0 0 191.36 0 27.136 27.136 0 0 1 49.216 23.104 160 160 0 0 1-289.728 0 27.136 27.136 0 1 1 49.152-23.104z m-211.072 89.6a444.032 444.032 0 0 1 178.688-104.064 27.136 27.136 0 0 1 15.616 52.032 389.76 389.76 0 0 0-156.8 91.392 27.136 27.136 0 0 1-37.504-39.296zM113.28 261.504a105.728 105.728 0 0 0 88.128-164.224 27.136 27.136 0 0 1 45.184-30.08A160 160 0 0 1 113.28 315.776a27.136 27.136 0 1 1 0-54.4z m-5.952-0.192c1.792 0.128 3.84 0.192 5.952 0.192a27.136 27.136 0 1 1 0 54.272c-3.136 0-6.08 0-8.96-0.192a27.136 27.136 0 1 1 3.008-54.272zM79.36 485.824a445.76 445.76 0 0 1 0-203.648 27.136 27.136 0 0 1 52.864 12.416 391.488 391.488 0 0 0 0 178.816 27.136 27.136 0 1 1-52.864 12.416z m33.92 20.736c-2.176 0-4.16 0-5.952 0.128a27.136 27.136 0 0 1-3.008-54.208c2.88-0.128 5.824-0.256 8.96-0.256a27.136 27.136 0 1 1 0 54.4z m88.128 164.224A105.728 105.728 0 0 0 113.28 506.56a27.136 27.136 0 1 1 0-54.336 160 160 0 0 1 133.312 248.64 27.136 27.136 0 1 1-45.184-30.08zM383.936 809.6a444.032 444.032 0 0 1-178.688-104.128 27.136 27.136 0 1 1 37.504-39.296 389.76 389.76 0 0 0 156.8 91.392 27.136 27.136 0 0 1-15.616 52.032z m223.808-14.464a105.728 105.728 0 0 0-191.424 0 27.136 27.136 0 1 1-49.152-23.104 160 160 0 0 1 289.728 0 27.136 27.136 0 0 1-49.152 23.104z m212.224-90.816a444.16 444.16 0 0 1-179.84 105.28 27.136 27.136 0 1 1-15.616-52.032c59.264-17.792 113.28-49.6 157.824-92.416a27.136 27.136 0 0 1 37.632 39.168z m92.608-197.76a105.728 105.728 0 0 0-88.704 163.392 27.136 27.136 0 1 1-45.44 29.632 160 160 0 0 1 134.208-247.296 27.136 27.136 0 0 1-0.064 54.272z m4.48 0.064h-4.48a27.136 27.136 0 0 1 0-54.4c2.432 0 4.672 0.064 6.848 0.192a27.136 27.136 0 0 1-2.368 54.208z"  horiz-adv-x="1024" />

    
    <glyph glyph-name="chuhangjilu" unicode="&#58982;" d="M800.448644 369.850563c-8.067982-23.033967-24.252696-36.854348-44.459213-36.854348-4.046178 0-12.138535 4.606793-16.184713 4.606794l-125.309657 55.281521c-8.067982 4.631168-20.206517 9.237961-24.252696 23.058342l-20.206517 41.461141-56.597748-142.834972c64.66573-124.407798 161.700888-331.713504 165.747066-340.92709 16.160339-32.271929 4.021804-73.73307-24.277071-92.160244-8.067982-4.606793-20.206517-9.213587-28.274499-9.213587-20.206517 0-40.437409 13.82038-52.55157 36.854348 0 4.606793-64.690105 138.228178-121.287853 253.398015l-92.964605-239.577635c-8.092357-27.640761-27.787008-40.778653-51.893456-43.654852-8.604223-1.023732-16.282212-2.023089-28.981362 2.193711-28.2745 13.82038-40.413035 55.281522-28.2745 87.529076l14.673491 38.901811 84.14101 222.734808 26.495156 70.101259c-20.206517 46.067935-20.206517 101.373831-4.046178 142.834972 8.092357 23.033967 20.206517 55.281522 32.345053 87.529076l-72.758088-27.640761-12.138535-133.59701c0-15.599724-1.828093-31.589441-12.942896-37.60996-11.139178-5.996144-15.940968-7.092999-21.815239-8.043607-4.948037-0.804361-6.313013-0.438742-9.701078-0.438743h-4.046178c-13.722882 2.608079-23.42396 10.822308-33.466283 25.910167-4.53367 7.556116-5.094285 11.358549-6.800505 20.06027-0.901859 6.922377-0.85311 9.237961-0.170621 13.942253l16.184713 170.475732c4.046178 18.402799 16.160339 36.854348 32.320678 41.461142l190.024136 73.708695c36.366856 18.427174 76.804266 13.82038 105.10314-18.427174l16.160339-23.033967 68.736283-142.834972 109.149318-46.067935c24.252696-9.213587 36.366856-41.461141 32.320678-69.126276zM556.946704 696.859775c-52.210326 0-95.694556 45.263574-95.694556 99.570112C461.252148 850.736426 504.736379 896 556.946704 896c52.210326 0 95.718931-45.263574 95.718931-99.570113 0-54.306539-43.508605-99.570113-95.718931-99.570112z"  horiz-adv-x="1024" />

    
    <glyph glyph-name="shuxing1" unicode="&#58968;" d="M836.70016-64.39936v441.984c57.84064 12.88704 101.18144 63.68256 101.18144 124.3648 0 60.65152-43.3408 111.44704-101.18144 124.29824V832.33792c0 20.992-17.26976 38.00064-38.64064 38.00064-21.31968 0-38.66112-17.00864-38.66112-38.00064v-212.29568c-47.49824-19.00032-81.1008-64.72192-81.1008-118.12864 0-53.376 33.60256-99.1232 81.1008-118.09792v-448.22016c0-20.96128 17.28-38.00064 38.66112-38.00064 21.30944 0.00512 38.64064 16.98304 38.64064 38.00576zM755.6608 501.91872c0.06144 28.47232 23.51104 51.53792 52.4288 51.56864 28.96896 0 52.48-23.12704 52.48-51.56864 0-28.4416-23.51104-51.5328-52.48-51.5328-28.91776 0.0256-52.36736 23.0656-52.4288 51.5328zM504.2688-102.4c21.31456 0 38.65088 17.03936 38.65088 38.00064v196.29568c56.64256 13.71648 98.80064 63.88736 98.80064 123.73504s-42.15808 110.14144-98.80064 123.8016V832.36864c0 20.96128-17.34144 38.00064-38.65088 38.03136-21.34528 0-38.68672-17.00864-38.68672-38.00064v-457.7792c-48.65536-18.4064-83.35872-64.72192-83.35872-118.9888 0-54.14912 34.70336-100.45952 83.35872-118.93248v-201.09824c-0.0256-20.89984 17.31072-38.00064 38.62528-38.00064h0.06144z m-44.71296 358.03136c0.03072 28.49792 23.51104 51.53792 52.49024 51.59936 28.97408-0.06144 52.36224-23.10144 52.36224-51.59936 0-28.4416-23.4496-51.41504-52.36224-51.5328-28.9792 0.11776-52.45952 23.0912-52.49024 51.5328z m-210.4832 123.14112c55.51616 14.49472 96.60416 64.1024 96.60416 123.14624 0 59.01824-41.08288 108.65664-96.60416 123.14624V832.33792c0 20.992-17.3056 38.00064-38.656 38.00064-21.37088 0-38.65088-17.00864-38.65088-38.00064v-210.63168C121.89184 603.89376 86.1184 557.01504 86.1184 501.91872c0-55.0656 35.77344-101.97504 85.65248-119.81824v-446.49984c0-20.96128 17.28-38.00064 38.65088-38.00064 21.34528 0 38.656 17.03936 38.656 38.00064v443.17184zM163.42528 501.91872c0.05632 28.47232 23.48032 51.53792 52.48512 51.56864 28.88704 0 52.4288-23.12704 52.4288-51.56864 0-28.4416-23.48032-51.5328-52.4288-51.5328-29.0048 0.0256-52.4288 23.0656-52.48512 51.5328z"  horiz-adv-x="1024" />

    
    <glyph glyph-name="xitongguanli3" unicode="&#58894;" d="M962.104889 507.790222a178.403556 178.403556 0 0 1 52.792889 121.969778C1014.897778 781.767111 798.72 896 512 896S9.102222 781.767111 9.102222 629.76a178.403556 178.403556 0 0 1 53.248-121.969778A182.044444 182.044444 0 0 1 9.102222 384a178.403556 178.403556 0 0 1 52.792889-121.969778A182.044444 182.044444 0 0 1 9.102222 138.24C9.102222-14.222222 225.28-128 512-128S1014.897778-14.222222 1014.897778 138.24a182.044444 182.044444 0 0 1-52.792889 123.790222 178.403556 178.403556 0 0 1 52.792889 121.969778 182.044444 182.044444 0 0 1-52.792889 123.790222z m-450.104889-500.622222c-227.555556 0-366.364444 83.740444-366.364444 129.706667 0 12.743111 11.832889 28.672 31.402666 45.511111a812.373333 812.373333 0 0 1 334.961778-64.625778 812.373333 812.373333 0 0 1 334.961778 64.625778c19.569778-15.473778 31.402667-31.402667 31.402666-45.511111 0-44.145778-141.084444-128.341333-366.364444-128.341334z m0 245.76c-227.555556 0-366.364444 83.740444-366.364444 129.706667 0 12.743111 12.288 28.672 31.857777 45.511111a812.828444 812.828444 0 0 1 334.506667-64.625778 812.373333 812.373333 0 0 1 334.961778 64.625778c19.569778-15.473778 31.402667-31.402667 31.402666-45.511111 0-44.145778-141.084444-128.341333-366.364444-128.341334z m0 245.76C284.899556 500.508444 145.635556 584.248889 145.635556 629.76S284.899556 759.466667 512 759.466667s366.364444-83.740444 366.364444-129.706667-141.084444-129.251556-366.364444-129.251556z"  horiz-adv-x="1024" />

    
    <glyph glyph-name="guanli14" unicode="&#58957;" d="M511.983104-128c-6.075733 0-12.1856 1.092267-17.954133 3.242667l-409.6 153.6A51.234133 51.234133 0 0 0 51.183104 76.8V486.4a51.2 51.2 0 0 0 102.4 0v-374.101333l358.4-134.382934L870.383104 112.298667V486.4a51.2 51.2 0 0 0 102.4 0v-409.6c0-21.333333-13.243733-40.448-33.211733-47.957333l-409.6-153.6c-5.802667-2.1504-11.8784-3.242667-17.988267-3.242667zM939.571371 739.157333l-409.6 153.6a51.677867 51.677867 0 0 1-35.9424 0l-409.6-153.6a51.234133 51.234133 0 0 1 0-95.914666l409.6-153.6a51.6096 51.6096 0 0 1 35.9424 0l409.6 153.6a51.234133 51.234133 0 0 1 0 95.914666z"  horiz-adv-x="1024" />

    
    <glyph glyph-name="chuhang3" unicode="&#58899;" d="M153.6 482.987a368.64 368.64 0 1 1 737.28 0 368.64 368.64 0 1 1-737.28 0zM414.72 529.067h643.413v-489.814H414.72zM261.12 390.827H691.2v-474.454H261.12zM706.56-100.693H244.053V407.893H368.64v-34.133h-90.453v-440.32h394.24v59.733h34.133zM706.56-85.333h-35.84L397.653-5.12v44.373h34.134v-18.773l240.64-69.973v42.666h34.133zM972.8 23.893L820.907 175.787h-215.04L512 269.653l87.04 85.334 37.547-37.547H865.28l204.8-204.8-23.893-23.893-194.56 194.56h-230.4l-22.187 22.186-37.547-35.84 59.734-59.733H834.56l162.133-162.133zM861.867 27.307l-71.68 71.68h-215.04l-157.014 158.72 23.894 23.893 148.48-148.48H803.84l81.92-81.92zM476.16 305.493l-58.027 58.027 23.894 25.6 34.133-34.133 35.84 35.84-93.867 95.573 23.894 23.893 119.466-119.466z m570.027-109.226l-163.84 163.84h-230.4L494.933 517.12l23.894 23.893 148.48-146.773H896l174.08-174.08z m-153.6 321.28l24.132 24.132 153.259-153.259-24.133-24.132zM1075.2 22.187H397.653V546.133H1075.2v-523.946zM431.787 56.32h609.28V512h-609.28v-455.68zM826.027 841.387c-112.64 0-204.8-92.16-204.8-204.8 0-175.787 174.08-199.68 189.44-378.88 0-8.534 6.826-15.36 15.36-15.36s15.36 6.826 15.36 15.36c15.36 179.2 189.44 203.093 189.44 378.88-1.707 112.64-92.16 204.8-204.8 204.8zM826.027 226.987c-17.067 0-30.72 13.653-32.427 30.72-6.827 81.92-47.787 128-92.16 177.493-47.787 52.907-95.573 105.813-95.573 203.093 0 122.88 98.986 221.867 221.866 221.867S1049.6 761.173 1049.6 638.293c0-97.28-49.493-150.186-95.573-203.093-44.374-49.493-87.04-95.573-92.16-177.493-5.12-18.774-18.774-30.72-35.84-30.72z m0 597.333c-102.4 0-187.734-83.627-187.734-187.733 0-83.627 42.667-129.707 87.04-180.907 44.374-47.787 88.747-98.987 100.694-182.613 11.946 85.333 56.32 134.826 100.693 182.613 44.373 49.493 87.04 97.28 87.04 180.907-1.707 104.106-85.333 187.733-187.733 187.733zM890.88 636.587c0-35.84-29.013-64.854-64.853-64.854s-64.854 29.014-64.854 64.854 29.014 64.853 64.854 64.853 64.853-27.307 64.853-64.853zM826.027 554.667c-46.08 0-81.92 37.546-81.92 81.92s37.546 81.92 81.92 81.92 81.92-37.547 81.92-81.92-37.547-81.92-81.92-81.92z m0 131.413c-27.307 0-47.787-22.187-47.787-47.787 0-27.306 22.187-47.786 47.787-47.786s47.786 22.186 47.786 47.786-22.186 47.787-47.786 47.787z"  horiz-adv-x="1211" />

    
    </font>
</defs>
</svg>
